<svg width="26" height="39" viewBox="0 0 26 39" fill="none" xmlns="http://www.w3.org/2000/svg">
<path d="M12.1037 37.4434C12.2723 37.7843 12.6197 38 13 38C13.3803 38 13.7277 37.7843 13.8963 37.4434C15.9834 33.2248 17.8989 29.9148 19.5467 27.0674C20.322 25.7277 21.0381 24.4904 21.6848 23.309C23.6839 19.6575 25 16.5703 25 12.9512C25 9.36374 23.7926 6.3554 21.6374 4.24353C19.4851 2.1345 16.4699 1 13 1C9.54565 1 6.52807 2.06582 4.36825 4.14917C2.20283 6.23792 1 9.25294 1 12.9512C1 16.6864 2.31367 19.772 4.31683 23.4009C4.95521 24.5574 5.66081 25.7652 6.42406 27.0717C8.07872 29.9039 10.0044 33.2 12.1037 37.4434Z" fill="#177EE8" stroke="#177EE8" stroke-width="2" stroke-linejoin="round"/>
<circle cx="13" cy="13" r="7" fill="white"/>
</svg>
