<svg width="434" height="434" viewBox="0 0 434 434" fill="none" xmlns="http://www.w3.org/2000/svg">
<path d="M181.53 104.239L165.433 98.8794L155.56 100.3L155.103 124.068L165.433 126.284L181.531 120.924C182.747 120.52 183.566 119.382 183.566 118.101V107.062C183.565 105.781 182.745 104.643 181.53 104.239Z" fill="white"/>
<path d="M132.778 172.48V141.746L143.07 128.14H164.192C164.877 128.14 165.433 127.584 165.433 126.899V97.4072C165.433 96.7217 164.877 96.1663 164.192 96.1663H90.3779C86.586 96.1663 82.9982 97.8862 80.6236 100.843L76.2442 106.295C74.9675 107.885 74.2715 109.863 74.2715 111.902V123.202C74.2715 126.276 75.8484 129.135 78.4487 130.775L92.7081 139.768C93.3184 140.153 93.6883 140.824 93.6883 141.546V172.482V190.833H132.489L132.778 172.48Z" fill="white"/>
<path d="M171.389 238.46L142.563 202.348C142.563 202.348 137.773 195.935 137.573 195.885C137.372 195.835 109.131 195.405 109.131 195.405L107.204 202.348L71.9497 237.602V401.405H161.871C169.619 401.405 175.895 395.123 175.895 387.38V251.338C175.895 246.659 174.305 242.116 171.389 238.46Z" fill="white"/>
<path d="M104.163 212.501H125.752V287.454H104.163V212.501Z" fill="white"/>
<path d="M135.281 192.484H95.2505V220.746C95.2505 224.704 98.4592 227.912 102.417 227.912H128.114C132.072 227.912 135.281 224.704 135.281 220.746V192.484Z" fill="white"/>
<path d="M96.4921 190.658L87.9688 202.348L59.1428 238.46C56.227 242.116 54.6365 246.659 54.6365 251.338V271.252H80.1236V251.338C80.1236 246.659 81.7141 242.116 84.63 238.46L113.456 202.348L114.625 195.383L96.4921 190.658Z" fill="white"/>
<path d="M105.783 192.484L105.631 192.234L95.251 193.138V202.348V220.746C95.251 221.961 95.5555 223.103 96.0887 224.105L102.541 216.022C105.707 212.055 110.508 209.745 115.584 209.745H135.281V192.484H105.783V192.484Z" fill="white"/>
<path d="M107.2 152.503V141.373C107.2 140.652 106.83 139.98 106.22 139.596L91.9599 130.603C89.3596 128.963 87.7827 126.104 87.7827 123.03V111.73C87.7827 109.691 88.4787 107.713 89.7554 106.123L94.1348 100.671C96.0748 98.2555 98.8242 96.6668 101.833 96.1656H90.3774C86.5855 96.1656 82.9977 97.8856 80.6231 100.842L76.2437 106.295C74.967 107.885 74.271 109.862 74.271 111.902V123.201C74.271 126.276 75.8479 129.135 78.4482 130.775L92.7076 139.768C93.3179 140.152 93.6878 140.824 93.6878 141.545V172.482V190.833H132.489L132.777 172.482V165.084H119.779C112.832 165.083 107.2 159.451 107.2 152.503Z" fill="white"/>
<path d="M140.143 202.348H90.3889C86.5588 202.348 83.4536 199.242 83.4536 195.412V179.416C83.4536 175.586 86.5588 172.48 90.3889 172.48H140.143C143.973 172.48 147.078 175.586 147.078 179.416V195.412C147.078 199.242 143.973 202.348 140.143 202.348Z" fill="#FFCE54"/>
<path d="M103.469 195.412V179.416C103.469 175.586 106.574 172.48 110.404 172.48H90.3889C86.5588 172.48 83.4536 175.586 83.4536 179.416V195.412C83.4536 199.242 86.5588 202.348 90.3889 202.348H110.404C106.574 202.348 103.469 199.242 103.469 195.412Z" fill="#FFCE54"/>
<path d="M80.1236 387.38V356.59H54.6365V387.38C54.6365 395.123 60.9121 401.404 68.6611 401.404H94.1483C86.3993 401.404 80.1236 395.123 80.1236 387.38Z" fill="white"/>
<path d="M174.662 268.346H74.3923V364.207H174.662H175.895V268.346H174.662Z" fill="#177EE8"/>
<path d="M54.6365 268.346H80.1236V364.207H54.6365V268.346Z" fill="#177EE8"/>
<path d="M141.754 305.972H125.752V289.971C125.752 287.896 124.07 286.214 121.995 286.214H107.921C105.846 286.214 104.164 287.896 104.164 289.971V305.972H88.1623C86.0872 305.972 84.4055 307.655 84.4055 309.729V323.804C84.4055 325.879 86.0879 327.56 88.1623 327.56H104.164V343.563C104.164 345.638 105.846 347.319 107.921 347.319H121.995C124.07 347.319 125.752 345.637 125.752 343.563V327.56H141.754C143.829 327.56 145.51 325.878 145.51 323.804V309.729C145.511 307.655 143.829 305.972 141.754 305.972Z" fill="#F2FBFF"/>
<path d="M175.895 333.24C173.342 333.24 171.272 335.31 171.272 337.864V359.583H59.2599V307.297C59.2599 304.743 57.1898 302.674 54.6364 302.674C52.083 302.674 50.0129 304.743 50.0129 307.297V387.381C50.0129 397.663 58.3778 406.027 68.6598 406.027H161.871C172.153 406.027 180.518 397.663 180.518 387.381V337.864C180.519 335.31 178.449 333.24 175.895 333.24ZM161.872 396.78H68.6598C63.4766 396.78 59.2599 392.564 59.2599 387.381V368.83H171.271V387.381C171.272 392.564 167.055 396.78 161.872 396.78Z" fill="black"/>
<path d="M182.991 99.8521L170.007 95.5294C169.697 93.2775 167.77 91.5421 165.433 91.5421H145.133C142.58 91.5421 140.51 93.6116 140.51 96.1656C140.51 98.7196 142.58 100.789 145.133 100.789H160.809V123.516H143.07C141.621 123.516 140.256 124.196 139.383 125.351L129.091 138.956C128.484 139.76 128.154 140.739 128.154 141.745V167.856H98.3124V140.385C98.3124 138.798 97.4981 137.321 96.1554 136.474L80.9152 126.863C79.6502 126.065 78.895 124.696 78.895 123.201V111.902C78.895 110.919 79.2334 109.956 79.8487 109.19L84.228 103.737C85.7328 101.864 87.9743 100.789 90.3779 100.789H125.429C127.982 100.789 130.052 98.7196 130.052 96.1656C130.052 93.6116 127.982 91.5421 125.429 91.5421H90.3779C85.1571 91.5421 80.2882 93.8767 77.0191 97.9472L72.6397 103.4C70.7108 105.802 69.648 108.821 69.648 111.902V123.201C69.648 127.891 72.0159 132.184 75.9822 134.685L89.0648 142.936V167.94C83.3132 168.599 78.8297 173.491 78.8297 179.416V195.413C78.8297 198.273 79.8795 200.888 81.6062 202.908L55.5309 235.576C51.9721 240.035 50.0117 245.632 50.0117 251.336V287.593C50.0117 290.147 52.0818 292.217 54.6352 292.217C57.1886 292.217 59.2587 290.147 59.2587 287.593V272.966H104.162H125.751H171.271V318.159C171.271 320.713 173.341 322.782 175.894 322.782C178.447 322.782 180.518 320.713 180.518 318.159V251.336C180.518 245.632 178.558 240.035 174.999 235.576L148.924 202.908C150.65 200.888 151.7 198.272 151.7 195.413V179.416C151.7 173.043 146.515 167.858 140.142 167.858H137.4V143.298L145.368 132.763H150.935V150.268C150.935 151.494 151.422 152.67 152.289 153.538L163.963 165.212C164.866 166.114 166.049 166.565 167.232 166.565C168.415 166.565 169.599 166.114 170.501 165.212C172.307 163.405 172.307 160.478 170.501 158.673L160.182 148.354V132.763H165.431C167.432 132.763 169.131 131.49 169.775 129.711L182.989 125.312C186.098 124.276 188.188 121.379 188.188 118.102V107.062C188.189 103.785 186.1 100.887 182.991 99.8521ZM128.114 223.289H125.751H104.163H102.416C101.014 223.289 99.8733 222.148 99.8733 220.746V206.97H130.657V220.746C130.657 222.148 129.517 223.289 128.114 223.289ZM59.2599 251.336C59.2599 247.719 60.5027 244.171 62.759 241.345L90.2028 206.961C90.2651 206.962 90.3261 206.97 90.3884 206.97H90.627V220.746C90.627 226.253 94.4275 230.876 99.5398 232.166V263.72H59.2599V251.336ZM108.787 263.72V232.536H121.128V263.72H108.787ZM171.272 251.336V263.72H130.375V232.313C135.798 231.256 139.905 226.474 139.905 220.746V206.97H140.143C140.206 206.97 140.267 206.962 140.329 206.961L167.773 241.345C170.029 244.171 171.272 247.719 171.272 251.336ZM142.454 179.416V195.412C142.454 196.687 141.418 197.723 140.143 197.723H135.281H95.2505H90.3884C89.1142 197.723 88.0766 196.687 88.0766 195.412V179.416C88.0766 178.141 89.1135 177.104 90.3884 177.104H140.142C141.417 177.104 142.454 178.141 142.454 179.416ZM178.943 116.913L170.056 119.872V105.292L178.943 108.251V116.913Z" fill="black"/>
<path d="M212.206 108.574H208.721C206.168 108.574 204.097 110.644 204.097 113.198C204.097 115.752 206.168 117.821 208.721 117.821H212.206C214.76 117.821 216.83 115.752 216.83 113.198C216.83 110.644 214.76 108.574 212.206 108.574Z" fill="black"/>
<path d="M206.006 100.962C206.451 100.962 206.904 100.897 207.353 100.761L210.688 99.7467C213.131 99.0038 214.509 96.4208 213.766 93.9784C213.023 91.5347 210.44 90.1588 207.998 90.8998L204.663 91.9139C202.22 92.6567 200.841 95.2397 201.584 97.6821C202.19 99.677 204.024 100.962 206.006 100.962Z" fill="black"/>
<path d="M210.688 126.649L207.353 125.635C204.906 124.894 202.326 126.271 201.584 128.714C200.841 131.157 202.22 133.739 204.663 134.482L207.998 135.496C208.447 135.632 208.899 135.697 209.345 135.697C211.327 135.697 213.16 134.412 213.767 132.418C214.508 129.974 213.131 127.392 210.688 126.649Z" fill="black"/>
<path d="M121.995 281.59H107.921C103.3 281.59 99.5403 285.35 99.5403 289.971V301.349H88.1616C83.5406 301.349 79.7808 305.109 79.7808 309.73V323.804C79.7808 328.425 83.5406 332.185 88.1616 332.185H99.5403V343.563C99.5403 348.184 103.3 351.944 107.921 351.944H121.995C126.616 351.944 130.375 348.184 130.375 343.563V332.185H141.754C146.375 332.185 150.135 328.425 150.135 323.804V309.73C150.135 305.109 146.375 301.349 141.754 301.349H130.375V289.971C130.375 285.35 126.616 281.59 121.995 281.59ZM140.887 310.596V322.938H125.752C123.198 322.938 121.128 325.008 121.128 327.562V342.697H108.787V327.562C108.787 325.008 106.717 322.938 104.163 322.938H89.0278V310.596H104.163C106.717 310.596 108.787 308.526 108.787 305.972V290.837H121.128V305.972C121.128 308.526 123.198 310.596 125.752 310.596H140.887Z" fill="black"/>
</svg>
