<svg width="360" height="360" viewBox="0 0 360 360" fill="none" xmlns="http://www.w3.org/2000/svg">
<path d="M44.9717 33.75H315.028V354.375H44.9717V33.75Z" fill="#FFCE54"/>
<path d="M315.028 33.75H44.9717L73.1529 5.625H286.847L315.028 33.75Z" fill="#F6BB42"/>
<path d="M129.347 90.0563C129.347 80.7188 136.884 73.125 146.222 73.125H213.722C223.003 73.125 230.597 80.7188 230.597 90.0563C230.597 99.3375 223.003 106.931 213.722 106.931H146.222C136.884 106.931 129.347 99.3375 129.347 90.0563Z" fill="#48ADE1"/>
<path d="M196.903 151.875C206.184 151.931 213.665 159.413 213.722 168.694H179.972C180.028 159.356 187.565 151.875 196.847 151.875H196.903Z" fill="white"/>
<path d="M146.222 135C155.559 135 163.097 142.538 163.097 151.875C153.815 151.875 146.278 159.356 146.222 168.694C146.165 159.356 138.684 151.875 129.347 151.875C129.347 142.538 136.94 135 146.222 135Z" fill="white"/>
<path d="M146.222 168.694H112.472C112.528 159.356 120.065 151.875 129.347 151.875C138.684 151.875 146.165 159.356 146.222 168.694Z" fill="white"/>
<path d="M179.972 135C189.309 135 196.847 142.538 196.847 151.875C187.565 151.875 180.028 159.356 179.972 168.694C179.915 159.356 172.434 151.875 163.097 151.875C163.097 142.538 170.69 135 179.972 135Z" fill="white"/>
<path d="M247.528 168.694H213.778C213.835 159.356 221.316 151.875 230.653 151.875C239.935 151.875 247.472 159.356 247.528 168.694Z" fill="white"/>
<path d="M230.653 151.875C221.316 151.875 213.835 159.356 213.778 168.694H213.722C213.666 159.413 206.185 151.931 196.903 151.875C196.903 142.538 204.441 135 213.778 135C223.06 135 230.653 142.538 230.653 151.875Z" fill="white"/>
<path d="M179.972 168.694H146.222C146.278 159.356 153.815 151.875 163.097 151.875C172.434 151.875 179.915 159.356 179.972 168.694Z" fill="white"/>
<path d="M112.472 168.694H146.222H179.972H213.722H213.778H247.528H253.153V179.944C253.153 220.331 220.36 253.069 180.028 253.069C139.641 253.069 106.903 220.331 106.903 179.944V168.694H112.472Z" fill="#177EE8"/>
<path d="M315.011 359.994H44.9888C41.8781 359.994 39.3638 357.48 39.3638 354.369V33.7781C39.3638 30.6675 41.8781 28.1531 44.9888 28.1531H315.011C318.122 28.1531 320.636 30.6675 320.636 33.7781V354.369C320.636 357.48 318.122 359.994 315.011 359.994ZM50.6138 348.744H309.386V39.4031H50.6138V348.744Z" fill="black"/>
<path d="M44.9887 39.4032C43.5487 39.4032 42.1087 38.8519 41.0118 37.7551C38.8125 35.5557 38.8125 31.9951 41.0118 29.8013L69.1593 1.6538C71.3587 -0.545571 74.9137 -0.545571 77.1131 1.6538C79.3125 3.85318 79.3125 7.40818 77.1131 9.60755L48.9656 37.7551C47.8687 38.8519 46.4287 39.4032 44.9887 39.4032Z" fill="black"/>
<path d="M315.011 39.4032C313.571 39.4032 312.131 38.8519 311.034 37.7551L282.887 9.60755C280.687 7.40818 280.687 3.85318 282.887 1.6538C285.086 -0.545571 288.641 -0.545571 290.841 1.6538L318.988 29.8013C321.187 32.0007 321.187 35.5557 318.988 37.7551C317.891 38.8519 316.451 39.4032 315.011 39.4032Z" fill="black"/>
<path d="M286.864 11.2556H73.1362C70.0256 11.2556 67.5112 8.74124 67.5112 5.63062C67.5112 2.51999 70.0256 0.00561523 73.1362 0.00561523H286.864C289.974 0.00561523 292.489 2.51999 292.489 5.63062C292.489 8.74124 289.974 11.2556 286.864 11.2556Z" fill="black"/>
<path d="M180 258.722C136.575 258.722 101.25 223.397 101.25 179.972C101.25 176.861 103.764 174.347 106.875 174.347C109.986 174.347 112.5 176.861 112.5 179.972C112.5 217.193 142.779 247.472 180 247.472C217.221 247.472 247.5 217.193 247.5 179.972C247.5 176.861 250.014 174.347 253.125 174.347C256.236 174.347 258.75 176.861 258.75 179.972C258.75 223.397 223.425 258.722 180 258.722Z" fill="black"/>
<path d="M253.125 174.336H106.875C103.764 174.336 101.25 171.821 101.25 168.711C101.25 165.6 103.764 163.086 106.875 163.086H253.125C256.236 163.086 258.75 165.6 258.75 168.711C258.75 171.821 256.236 174.336 253.125 174.336Z" fill="black"/>
<path d="M106.875 185.597C103.764 185.597 101.25 183.083 101.25 179.972V168.711C101.25 165.6 103.764 163.086 106.875 163.086C109.986 163.086 112.5 165.6 112.5 168.711V179.972C112.5 183.083 109.986 185.597 106.875 185.597Z" fill="black"/>
<path d="M253.125 185.597C250.014 185.597 247.5 183.083 247.5 179.972V168.711C247.5 165.6 250.014 163.086 253.125 163.086C256.236 163.086 258.75 165.6 258.75 168.711V179.972C258.75 183.083 256.236 185.597 253.125 185.597Z" fill="black"/>
<path d="M146.228 174.381C143.117 174.381 140.603 171.866 140.603 168.756C140.603 162.551 135.557 157.506 129.353 157.506C123.148 157.506 118.103 162.551 118.103 168.756C118.103 171.866 115.588 174.381 112.478 174.381C109.367 174.381 106.853 171.866 106.853 168.756C106.853 156.347 116.944 146.256 129.353 146.256C141.761 146.256 151.853 156.347 151.853 168.756C151.853 171.866 149.338 174.381 146.228 174.381Z" fill="black"/>
<path d="M179.989 174.381C176.878 174.381 174.364 171.866 174.364 168.756C174.364 162.551 169.318 157.506 163.114 157.506C156.909 157.506 151.864 162.551 151.864 168.756C151.864 171.866 149.349 174.381 146.239 174.381C143.128 174.381 140.614 171.866 140.614 168.756C140.614 156.347 150.705 146.256 163.114 146.256C175.523 146.256 185.614 156.347 185.614 168.756C185.614 171.866 183.099 174.381 179.989 174.381Z" fill="black"/>
<path d="M213.739 174.381C210.628 174.381 208.114 171.866 208.114 168.756C208.114 162.551 203.068 157.506 196.864 157.506C190.659 157.506 185.614 162.551 185.614 168.756C185.614 171.866 183.099 174.381 179.989 174.381C176.878 174.381 174.364 171.866 174.364 168.756C174.364 156.347 184.455 146.256 196.864 146.256C209.273 146.256 219.364 156.347 219.364 168.756C219.364 171.866 216.849 174.381 213.739 174.381Z" fill="black"/>
<path d="M163.114 157.506C160.003 157.506 157.489 154.991 157.489 151.881C157.489 145.676 152.443 140.631 146.239 140.631C140.034 140.631 134.989 145.676 134.989 151.881C134.989 154.991 132.474 157.506 129.364 157.506C126.253 157.506 123.739 154.991 123.739 151.881C123.739 139.472 133.83 129.381 146.239 129.381C158.648 129.381 168.739 139.472 168.739 151.881C168.739 154.991 166.224 157.506 163.114 157.506Z" fill="black"/>
<path d="M196.864 157.506C193.753 157.506 191.239 154.991 191.239 151.881C191.239 145.676 186.193 140.631 179.989 140.631C173.784 140.631 168.739 145.676 168.739 151.881C168.739 154.991 166.224 157.506 163.114 157.506C160.003 157.506 157.489 154.991 157.489 151.881C157.489 139.472 167.58 129.381 179.989 129.381C192.398 129.381 202.489 139.472 202.489 151.881C202.489 154.991 199.974 157.506 196.864 157.506Z" fill="black"/>
<path d="M230.625 157.506C227.514 157.506 225 154.991 225 151.881C225 145.676 219.954 140.631 213.75 140.631C207.546 140.631 202.5 145.676 202.5 151.881C202.5 154.991 199.986 157.506 196.875 157.506C193.764 157.506 191.25 154.991 191.25 151.881C191.25 139.472 201.341 129.381 213.75 129.381C226.159 129.381 236.25 139.472 236.25 151.881C236.25 154.991 233.736 157.506 230.625 157.506Z" fill="black"/>
<path d="M247.5 174.381C244.389 174.381 241.875 171.866 241.875 168.756C241.875 162.551 236.829 157.506 230.625 157.506C224.421 157.506 219.375 162.551 219.375 168.756C219.375 171.866 216.861 174.381 213.75 174.381C210.639 174.381 208.125 171.866 208.125 168.756C208.125 156.347 218.216 146.256 230.625 146.256C243.034 146.256 253.125 156.347 253.125 168.756C253.125 171.866 250.611 174.381 247.5 174.381Z" fill="black"/>
<path d="M230.625 157.506C229.185 157.506 227.745 156.954 226.648 155.857C224.449 153.658 224.449 150.103 226.648 147.904L260.387 114.148C262.586 111.949 266.141 111.949 268.341 114.148C270.54 116.347 270.54 119.902 268.341 122.102L234.602 155.857C233.505 156.954 232.065 157.506 230.625 157.506Z" fill="black"/>
<path d="M146.205 112.545C133.796 112.545 123.705 102.448 123.705 90.0393C123.705 77.6306 133.796 67.5337 146.205 67.5337C149.316 67.5337 151.83 70.0481 151.83 73.1587C151.83 76.2693 149.316 78.7837 146.205 78.7837C140.001 78.7837 134.955 83.8293 134.955 90.0393C134.955 96.2493 140.001 101.295 146.205 101.295C149.316 101.295 151.83 103.809 151.83 106.92C151.83 110.031 149.316 112.545 146.205 112.545Z" fill="black"/>
<path d="M213.694 112.545C210.583 112.545 208.069 110.031 208.069 106.92C208.069 103.809 210.583 101.295 213.694 101.295C219.898 101.295 224.944 96.2493 224.944 90.0393C224.944 83.8293 219.898 78.7837 213.694 78.7837C210.583 78.7837 208.069 76.2693 208.069 73.1587C208.069 70.0481 210.583 67.5337 213.694 67.5337C226.103 67.5337 236.194 77.6306 236.194 90.0393C236.194 102.448 226.103 112.545 213.694 112.545Z" fill="black"/>
<path d="M213.694 112.545H146.205C143.094 112.545 140.58 110.031 140.58 106.92C140.58 103.809 143.094 101.295 146.205 101.295H213.694C216.804 101.295 219.319 103.809 219.319 106.92C219.319 110.031 216.804 112.545 213.694 112.545Z" fill="black"/>
<path d="M213.694 78.7837H146.205C143.094 78.7837 140.58 76.2693 140.58 73.1587C140.58 70.0481 143.094 67.5337 146.205 67.5337H213.694C216.804 67.5337 219.319 70.0481 219.319 73.1587C219.319 76.2693 216.804 78.7837 213.694 78.7837Z" fill="black"/>
<path d="M213.694 95.6587H146.183C143.072 95.6587 140.558 93.1443 140.558 90.0337C140.558 86.9231 143.072 84.4087 146.183 84.4087H213.694C216.804 84.4087 219.319 86.9231 219.319 90.0337C219.319 93.1443 216.804 95.6587 213.694 95.6587Z" fill="black"/>
<path d="M258.649 281.407H101.109C97.9988 281.407 95.4844 278.893 95.4844 275.782C95.4844 272.672 97.9988 270.157 101.109 270.157H258.654C261.765 270.157 264.279 272.672 264.279 275.782C264.279 278.893 261.759 281.407 258.649 281.407Z" fill="black"/>
<path d="M258.649 298.226H101.109C97.9988 298.226 95.4844 295.712 95.4844 292.601C95.4844 289.491 97.9988 286.976 101.109 286.976H258.654C261.765 286.976 264.279 289.491 264.279 292.601C264.279 295.712 261.759 298.226 258.649 298.226Z" fill="black"/>
<path d="M219.262 315.039H140.496C137.385 315.039 134.871 312.525 134.871 309.414C134.871 306.304 137.385 303.789 140.496 303.789H219.262C222.373 303.789 224.887 306.304 224.887 309.414C224.887 312.525 222.373 315.039 219.262 315.039Z" fill="black"/>
</svg>
