<svg width="337" height="337" viewBox="0 0 337 337" fill="none" xmlns="http://www.w3.org/2000/svg">
<g clip-path="url(#clip0)">
<path d="M105.391 26.3281H231.661V310.672H105.391V26.3281Z" fill="#177EE8"/>
<path d="M147.411 15.7969L157.942 5.26562L168.473 15.7969L179.005 5.26562L189.536 15.7969L200.067 5.26562L210.598 15.7969L221.13 5.26562L231.661 15.7969V26.3281H105.391V15.7969L105.339 15.7442L115.817 5.26562L126.348 15.7969L136.88 5.26562L147.411 15.7969Z" fill="#177EE8"/>
<path d="M136.88 79.037C136.88 70.2961 143.988 63.1875 152.729 63.1875H184.27C192.959 63.1875 200.067 70.2961 200.067 79.037C200.067 87.7253 192.959 94.8339 184.27 94.8339H152.729C143.988 94.8339 136.88 87.7253 136.88 79.037Z" fill="#FFCE54"/>
<path d="M152.677 179.031H168.473V294.875H152.677V179.031Z" fill="#FFCE54"/>
<path d="M121.083 179.031H136.88V294.875H121.083V179.031Z" fill="#FFCE54"/>
<path d="M136.88 179.031H152.676V294.875H136.88V179.031Z" fill="#FFCE54"/>
<path d="M200.067 179.031H215.864V294.875H200.067V179.031Z" fill="#FFCE54"/>
<path d="M168.473 179.031H184.27V294.875H168.473V179.031Z" fill="#FFCE54"/>
<path d="M184.27 179.031H200.067V294.875H184.27V179.031Z" fill="#FFCE54"/>
<path d="M105.391 310.672H231.661V321.203L221.13 331.734L210.598 321.203L200.067 331.734L189.536 321.203L179.005 331.734L168.473 321.203L157.942 331.734L147.411 321.203L136.88 331.734L126.348 321.203L115.817 331.734L105.339 321.256L105.391 321.203V310.672Z" fill="#177EE8"/>
<path d="M126.375 21.0625C125.027 21.0625 123.679 20.5464 122.652 19.5196C120.593 17.4608 120.593 14.1329 122.652 12.074L133.183 1.5428C135.242 -0.516058 138.57 -0.516058 140.629 1.5428C142.688 3.60166 142.688 6.92953 140.629 8.98839L130.098 19.5196C129.071 20.5464 127.723 21.0625 126.375 21.0625Z" fill="black"/>
<path d="M147.437 21.0625C146.089 21.0625 144.741 20.5464 143.715 19.5196L133.183 8.98839C131.124 6.92953 131.124 3.60166 133.183 1.5428C135.242 -0.516058 138.57 -0.516058 140.629 1.5428L151.16 12.074C153.219 14.1329 153.219 17.4608 151.16 19.5196C150.133 20.5464 148.785 21.0625 147.437 21.0625Z" fill="black"/>
<path d="M105.312 21.0625C103.964 21.0625 102.616 20.5464 101.59 19.5196C99.5307 17.4608 99.5307 14.1329 101.59 12.074L112.121 1.5428C114.18 -0.516058 117.508 -0.516058 119.566 1.5428C121.625 3.60166 121.625 6.92953 119.566 8.98839L109.035 19.5196C108.008 20.5464 106.66 21.0625 105.312 21.0625Z" fill="black"/>
<path d="M126.375 21.0625C125.027 21.0625 123.679 20.5464 122.652 19.5196L112.121 8.98839C110.062 6.92953 110.062 3.60166 112.121 1.5428C114.18 -0.516058 117.508 -0.516058 119.566 1.5428L130.098 12.074C132.157 14.1329 132.157 17.4608 130.098 19.5196C129.071 20.5464 127.723 21.0625 126.375 21.0625Z" fill="black"/>
<path d="M147.437 21.0625C146.089 21.0625 144.741 20.5464 143.715 19.5196C141.656 17.4608 141.656 14.1329 143.715 12.074L154.246 1.5428C156.305 -0.516058 159.633 -0.516058 161.691 1.5428C163.75 3.60166 163.75 6.92953 161.691 8.98839L151.16 19.5196C150.133 20.5464 148.785 21.0625 147.437 21.0625Z" fill="black"/>
<path d="M168.5 21.0625C167.152 21.0625 165.804 20.5464 164.777 19.5196L154.246 8.98839C152.187 6.92953 152.187 3.60166 154.246 1.5428C156.305 -0.516058 159.633 -0.516058 161.691 1.5428L172.223 12.074C174.281 14.1329 174.281 17.4608 172.223 19.5196C171.196 20.5464 169.848 21.0625 168.5 21.0625Z" fill="black"/>
<path d="M168.5 21.0625C167.152 21.0625 165.804 20.5464 164.777 19.5196C162.718 17.4608 162.718 14.1329 164.777 12.074L175.308 1.5428C177.367 -0.516058 180.695 -0.516058 182.754 1.5428C184.813 3.60166 184.813 6.92953 182.754 8.98839L172.223 19.5196C171.196 20.5464 169.848 21.0625 168.5 21.0625Z" fill="black"/>
<path d="M189.562 21.0625C188.214 21.0625 186.866 20.5464 185.84 19.5196L175.308 8.98839C173.249 6.92953 173.249 3.60166 175.308 1.5428C177.367 -0.516058 180.695 -0.516058 182.754 1.5428L193.285 12.074C195.344 14.1329 195.344 17.4608 193.285 19.5196C192.258 20.5464 190.91 21.0625 189.562 21.0625Z" fill="black"/>
<path d="M189.562 21.0625C188.214 21.0625 186.866 20.5464 185.84 19.5196C183.781 17.4608 183.781 14.1329 185.84 12.074L196.371 1.5428C198.43 -0.516058 201.758 -0.516058 203.816 1.5428C205.875 3.60166 205.875 6.92953 203.816 8.98839L193.285 19.5196C192.258 20.5464 190.91 21.0625 189.562 21.0625Z" fill="black"/>
<path d="M210.625 21.0625C209.277 21.0625 207.929 20.5464 206.902 19.5196L196.371 8.98839C194.312 6.92953 194.312 3.60166 196.371 1.5428C198.43 -0.516058 201.758 -0.516058 203.816 1.5428L214.348 12.074C216.406 14.1329 216.406 17.4608 214.348 19.5196C213.321 20.5464 211.973 21.0625 210.625 21.0625Z" fill="black"/>
<path d="M210.625 21.0625C209.277 21.0625 207.929 20.5464 206.902 19.5196C204.843 17.4608 204.843 14.1329 206.902 12.074L217.433 1.5428C219.492 -0.516058 222.82 -0.516058 224.879 1.5428C226.938 3.60166 226.938 6.92953 224.879 8.98839L214.348 19.5196C213.321 20.5464 211.973 21.0625 210.625 21.0625Z" fill="black"/>
<path d="M231.687 21.0625C230.339 21.0625 228.991 20.5464 227.965 19.5196L217.433 8.98839C215.374 6.92953 215.374 3.60166 217.433 1.5428C219.492 -0.516058 222.82 -0.516058 224.879 1.5428L235.41 12.074C237.469 14.1329 237.469 17.4608 235.41 19.5196C234.383 20.5464 233.035 21.0625 231.687 21.0625Z" fill="black"/>
<path d="M221.156 337C219.808 337 218.46 336.484 217.433 335.457C215.374 333.398 215.374 330.07 217.433 328.012L227.965 317.48C230.023 315.421 233.351 315.421 235.41 317.48C237.469 319.539 237.469 322.867 235.41 324.926L224.879 335.457C223.852 336.484 222.504 337 221.156 337Z" fill="black"/>
<path d="M221.156 337C219.808 337 218.46 336.484 217.433 335.457L206.902 324.926C204.843 322.867 204.843 319.539 206.902 317.48C208.961 315.421 212.289 315.421 214.348 317.48L224.879 328.012C226.938 330.07 226.938 333.398 224.879 335.457C223.852 336.484 222.504 337 221.156 337Z" fill="black"/>
<path d="M200.094 337C198.746 337 197.398 336.484 196.371 335.457C194.312 333.398 194.312 330.07 196.371 328.012L206.902 317.48C208.961 315.421 212.289 315.421 214.348 317.48C216.406 319.539 216.406 322.867 214.348 324.926L203.816 335.457C202.79 336.484 201.442 337 200.094 337Z" fill="black"/>
<path d="M200.094 337C198.746 337 197.398 336.484 196.371 335.457L185.84 324.926C183.781 322.867 183.781 319.539 185.84 317.48C187.898 315.421 191.226 315.421 193.285 317.48L203.816 328.012C205.875 330.07 205.875 333.398 203.816 335.457C202.79 336.484 201.442 337 200.094 337Z" fill="black"/>
<path d="M179.031 337C177.683 337 176.335 336.484 175.308 335.457C173.249 333.398 173.249 330.07 175.308 328.012L185.84 317.48C187.898 315.421 191.226 315.421 193.285 317.48C195.344 319.539 195.344 322.867 193.285 324.926L182.754 335.457C181.727 336.484 180.379 337 179.031 337Z" fill="black"/>
<path d="M179.031 337C177.683 337 176.335 336.484 175.308 335.457L164.777 324.926C162.718 322.867 162.718 319.539 164.777 317.48C166.836 315.421 170.164 315.421 172.223 317.48L182.754 328.012C184.813 330.07 184.813 333.398 182.754 335.457C181.727 336.484 180.379 337 179.031 337Z" fill="black"/>
<path d="M157.969 337C156.621 337 155.273 336.484 154.246 335.457C152.187 333.398 152.187 330.07 154.246 328.012L164.777 317.48C166.836 315.421 170.164 315.421 172.223 317.48C174.281 319.539 174.281 322.867 172.223 324.926L161.691 335.457C160.665 336.484 159.317 337 157.969 337Z" fill="black"/>
<path d="M157.969 337C156.621 337 155.273 336.484 154.246 335.457L143.715 324.926C141.656 322.867 141.656 319.539 143.715 317.48C145.773 315.421 149.101 315.421 151.16 317.48L161.691 328.012C163.75 330.07 163.75 333.398 161.691 335.457C160.665 336.484 159.317 337 157.969 337Z" fill="black"/>
<path d="M136.906 337C135.558 337 134.21 336.484 133.183 335.457C131.124 333.398 131.124 330.07 133.183 328.012L143.715 317.48C145.773 315.421 149.101 315.421 151.16 317.48C153.219 319.539 153.219 322.867 151.16 324.926L140.629 335.457C139.602 336.484 138.254 337 136.906 337Z" fill="black"/>
<path d="M136.906 337C135.558 337 134.21 336.484 133.183 335.457L122.652 324.926C120.593 322.867 120.593 319.539 122.652 317.48C124.711 315.421 128.039 315.421 130.098 317.48L140.629 328.012C142.688 330.07 142.688 333.398 140.629 335.457C139.602 336.484 138.254 337 136.906 337Z" fill="black"/>
<path d="M115.844 337C114.496 337 113.148 336.484 112.121 335.457C110.062 333.398 110.062 330.07 112.121 328.012L122.652 317.48C124.711 315.421 128.039 315.421 130.098 317.48C132.157 319.539 132.157 322.867 130.098 324.926L119.566 335.457C118.54 336.484 117.192 337 115.844 337Z" fill="black"/>
<path d="M115.844 337C114.496 337 113.148 336.484 112.121 335.457L101.59 324.926C99.5307 322.867 99.5307 319.539 101.59 317.48C103.648 315.421 106.976 315.421 109.035 317.48L119.566 328.012C121.625 330.07 121.625 333.398 119.566 335.457C118.54 336.484 117.192 337 115.844 337Z" fill="black"/>
<path d="M105.417 326.469C102.506 326.469 100.152 324.115 100.152 321.203V15.7969C100.152 12.885 102.506 10.5312 105.417 10.5312C108.329 10.5312 110.683 12.885 110.683 15.7969V321.203C110.683 324.115 108.324 326.469 105.417 326.469Z" fill="black"/>
<path d="M231.688 326.469C228.776 326.469 226.422 324.115 226.422 321.203V15.7969C226.422 12.885 228.776 10.5312 231.688 10.5312C234.599 10.5312 236.953 12.885 236.953 15.7969V321.203C236.953 324.115 234.599 326.469 231.688 326.469Z" fill="black"/>
<path d="M231.687 31.5937H105.397C102.485 31.5937 100.131 29.24 100.131 26.3281C100.131 23.4162 102.485 21.0625 105.397 21.0625H231.687C234.599 21.0625 236.953 23.4162 236.953 26.3281C236.953 29.24 234.599 31.5937 231.687 31.5937Z" fill="black"/>
<path d="M231.687 315.943H105.397C102.485 315.943 100.131 313.589 100.131 310.677C100.131 307.765 102.485 305.411 105.397 305.411H231.687C234.599 305.411 236.953 307.765 236.953 310.677C236.953 313.589 234.599 315.943 231.687 315.943Z" fill="black"/>
<path d="M215.896 300.146H121.104C118.192 300.146 115.838 297.792 115.838 294.88V179.036C115.838 176.125 118.192 173.771 121.104 173.771H215.896C218.808 173.771 221.161 176.125 221.161 179.036V294.88C221.161 297.792 218.808 300.146 215.896 300.146ZM126.37 289.615H210.63V184.302H126.37V289.615Z" fill="black"/>
<path d="M136.901 300.146C133.989 300.146 131.635 297.792 131.635 294.88V179.036C131.635 176.125 133.989 173.771 136.901 173.771C139.813 173.771 142.167 176.125 142.167 179.036V294.88C142.167 297.792 139.813 300.146 136.901 300.146Z" fill="black"/>
<path d="M152.698 300.146C149.786 300.146 147.432 297.792 147.432 294.88V179.036C147.432 176.125 149.786 173.771 152.698 173.771C155.61 173.771 157.963 176.125 157.963 179.036V294.88C157.963 297.792 155.61 300.146 152.698 300.146Z" fill="black"/>
<path d="M168.495 300.146C165.583 300.146 163.229 297.792 163.229 294.88V179.036C163.229 176.125 165.583 173.771 168.495 173.771C171.407 173.771 173.76 176.125 173.76 179.036V294.88C173.76 297.792 171.407 300.146 168.495 300.146Z" fill="black"/>
<path d="M184.292 300.146C181.38 300.146 179.026 297.792 179.026 294.88V179.036C179.026 176.125 181.38 173.771 184.292 173.771C187.203 173.771 189.557 176.125 189.557 179.036V294.88C189.557 297.792 187.203 300.146 184.292 300.146Z" fill="black"/>
<path d="M200.088 300.146C197.176 300.146 194.823 297.792 194.823 294.88V179.036C194.823 176.125 197.176 173.771 200.088 173.771C203 173.771 205.354 176.125 205.354 179.036V294.88C205.354 297.792 203 300.146 200.088 300.146Z" fill="black"/>
<path d="M152.719 100.084C141.103 100.084 131.651 90.6318 131.651 79.0159C131.651 67.3999 141.103 57.9481 152.719 57.9481C155.631 57.9481 157.984 60.3019 157.984 63.2137C157.984 66.1256 155.631 68.4794 152.719 68.4794C146.905 68.4794 142.182 73.2026 142.182 79.0159C142.182 84.8291 146.905 89.5524 152.719 89.5524C155.631 89.5524 157.984 91.9061 157.984 94.818C157.984 97.7299 155.631 100.084 152.719 100.084Z" fill="black"/>
<path d="M184.265 100.084C181.353 100.084 179 97.7299 179 94.818C179 91.9061 181.353 89.5524 184.265 89.5524C190.079 89.5524 194.802 84.8291 194.802 79.0159C194.802 73.2026 190.079 68.4794 184.265 68.4794C181.353 68.4794 179 66.1256 179 63.2137C179 60.3019 181.353 57.9481 184.265 57.9481C195.881 57.9481 205.333 67.3999 205.333 79.0159C205.333 90.6318 195.881 100.084 184.265 100.084Z" fill="black"/>
<path d="M184.265 100.084H152.719C149.807 100.084 147.453 97.73 147.453 94.8181C147.453 91.9062 149.807 89.5525 152.719 89.5525H184.265C187.177 89.5525 189.531 91.9062 189.531 94.8181C189.531 97.73 187.177 100.084 184.265 100.084Z" fill="black"/>
<path d="M184.265 68.4794H152.719C149.807 68.4794 147.453 66.1256 147.453 63.2137C147.453 60.3019 149.807 57.9481 152.719 57.9481H184.265C187.177 57.9481 189.531 60.3019 189.531 63.2137C189.531 66.1256 187.177 68.4794 184.265 68.4794Z" fill="black"/>
<path d="M184.27 84.2762H152.698C149.786 84.2762 147.432 81.9225 147.432 79.0106C147.432 76.0987 149.786 73.745 152.698 73.745H184.27C187.182 73.745 189.536 76.0987 189.536 79.0106C189.536 81.9225 187.182 84.2762 184.27 84.2762Z" fill="black"/>
<path d="M205.333 121.13H131.635C128.723 121.13 126.37 118.777 126.37 115.865C126.37 112.953 128.723 110.599 131.635 110.599H205.333C208.245 110.599 210.599 112.953 210.599 115.865C210.599 118.777 208.245 121.13 205.333 121.13Z" fill="black"/>
<path d="M205.333 136.927H131.635C128.723 136.927 126.37 134.574 126.37 131.662C126.37 128.75 128.723 126.396 131.635 126.396H205.333C208.245 126.396 210.599 128.75 210.599 131.662C210.599 134.574 208.245 136.927 205.333 136.927Z" fill="black"/>
<path d="M179.031 152.724H157.937C155.025 152.724 152.672 150.37 152.672 147.458C152.672 144.547 155.025 142.193 157.937 142.193H179.031C181.943 142.193 184.297 144.547 184.297 147.458C184.297 150.37 181.943 152.724 179.031 152.724Z" fill="black"/>
</g>
<defs>
<clipPath id="clip0">
<rect width="337" height="337" fill="white"/>
</clipPath>
</defs>
</svg>
