<svg width="19" height="360" viewBox="0 0 19 360" fill="none" xmlns="http://www.w3.org/2000/svg">
<mask id="path-1-inside-1" fill="white">
<path d="M0 9.50001C0 4.2533 4.2533 0 9.5 0C14.7467 0 19 4.2533 19 9.5V354.63C19 355.157 18.7973 355.663 18.4338 356.044C13.7268 360.982 5.90077 361.145 0.992125 356.408L0.650451 356.078C0.234783 355.677 0 355.124 0 354.547V9.50001Z"/>
</mask>
<path d="M0 9.50001C0 4.2533 4.2533 0 9.5 0C14.7467 0 19 4.2533 19 9.5V354.63C19 355.157 18.7973 355.663 18.4338 356.044C13.7268 360.982 5.90077 361.145 0.992125 356.408L0.650451 356.078C0.234783 355.677 0 355.124 0 354.547V9.50001Z" fill="white"/>
<path d="M0.992125 356.408L-1.09107 358.567L0.992125 356.408ZM0.650451 356.078L2.73365 353.919L0.650451 356.078ZM16 9.5V354.63H22V9.5H16ZM3 354.547V9.50001H-3V354.547H3ZM3.07532 354.249L2.73365 353.919L-1.43275 358.237L-1.09107 358.567L3.07532 354.249ZM16.2625 353.974C12.7036 357.707 6.78661 357.831 3.07532 354.249L-1.09107 358.567C5.01493 364.459 14.75 364.256 20.6051 358.115L16.2625 353.974ZM-3 354.547C-3 355.938 -2.43429 357.271 -1.43275 358.237L2.73365 353.919C2.90386 354.084 3 354.31 3 354.547H-3ZM16 354.63C16 354.386 16.094 354.151 16.2625 353.974L20.6051 358.115C21.5005 357.175 22 355.928 22 354.63H16ZM9.5 3C13.0899 3 16 5.91015 16 9.5H22C22 2.59644 16.4036 -3 9.5 -3V3ZM9.5 -3C2.59644 -3 -3 2.59645 -3 9.50001H3C3 5.91015 5.91015 3 9.5 3V-3Z" fill="black" mask="url(#path-1-inside-1)"/>
</svg>
