<svg width="331" height="331" viewBox="0 0 331 331" fill="none" xmlns="http://www.w3.org/2000/svg">
<g clip-path="url(#clip0)">
<path d="M116.281 38.0514C54.8669 38.0514 5.0813 56.3342 5.0813 78.8863C5.0813 101.439 54.8669 121.661 116.281 121.661C177.695 121.661 227.481 101.439 227.481 78.8863C227.481 56.3335 177.694 38.0514 116.281 38.0514Z" fill="white"/>
<path d="M41.9313 78.8863C41.9313 58.6389 82.0615 41.8366 134.706 38.6125C128.712 38.2453 122.558 38.0514 116.281 38.0514C54.8669 38.0514 5.0813 56.3335 5.0813 78.8863C5.0813 101.439 54.8669 121.661 116.281 121.661C122.558 121.661 128.712 121.446 134.706 121.043C82.0615 117.499 41.9313 99.1338 41.9313 78.8863Z" fill="white"/>
<path d="M116.28 119.722L227.48 122.308V78.8873C227.48 101.439 177.694 119.722 116.28 119.722Z" fill="#177EE8"/>
<path d="M325.774 166.358C326.588 164.163 326.588 161.748 325.774 159.553L322.952 151.947C322.138 149.752 322.138 147.338 322.951 145.144L325.774 137.535C326.588 135.34 326.588 132.926 325.774 130.732L323.124 123.59C322.262 121.265 320.045 119.722 317.565 119.722H116.298C116.293 119.722 116.287 119.722 116.281 119.722C54.8709 119.722 5.08203 101.425 5.08203 78.8918V251.791C5.08203 274.343 54.8676 292.625 116.281 292.625H317.566C320.045 292.625 322.263 291.082 323.125 288.758L325.774 281.62C326.588 279.424 326.588 277.01 325.774 274.814L322.953 267.214C322.139 265.018 322.139 262.604 322.953 260.408L325.774 252.806C326.588 250.61 326.588 248.196 325.774 246.001L322.953 238.4C322.139 236.204 322.139 233.79 322.953 231.595L325.774 223.993C326.588 221.798 326.588 219.383 325.774 217.188L322.953 209.585C322.139 207.39 322.139 204.975 322.953 202.779L325.774 195.176C326.589 192.981 326.589 190.567 325.774 188.372L322.953 180.767C322.139 178.572 322.139 176.158 322.953 173.963L325.774 166.358Z" fill="white"/>
<path d="M36.7593 263.642V107.42C17.1642 100.057 5.0813 89.9889 5.0813 78.8912V251.79C5.0813 265.932 24.6603 278.394 54.4047 285.722C43.2391 279.356 36.7593 271.778 36.7593 263.642Z" fill="white"/>
<path d="M116.281 90.7431C134.113 90.7431 148.569 85.4347 148.569 78.8866C148.569 72.3384 134.113 67.03 116.281 67.03C98.4485 67.03 83.9927 72.3384 83.9927 78.8866C83.9927 85.4347 98.4485 90.7431 116.281 90.7431Z" fill="#FFCE54"/>
<path d="M107.304 78.8866C107.304 73.8479 115.866 69.5461 127.936 67.8297C124.32 67.3151 120.392 67.03 116.281 67.03C98.4487 67.03 83.9927 72.3383 83.9927 78.8866C83.9927 85.4348 98.4487 90.7437 116.281 90.7437C120.392 90.7437 124.32 90.4586 127.936 89.944C115.866 88.2263 107.304 83.9253 107.304 78.8866Z" fill="#FFCE54"/>
<path d="M78.9114 79.0483C78.9114 90.5261 98.1619 95.7536 116.048 95.7536C133.934 95.7536 153.185 90.5261 153.185 79.0483C153.185 67.5705 133.934 62.3423 116.048 62.3423C98.1619 62.343 78.9114 67.5705 78.9114 79.0483ZM143.469 79.0483C142.678 81.057 133.394 86.0563 116.048 86.0563C98.7024 86.0563 89.4188 81.057 88.6275 79.0483C89.4181 77.0397 98.7018 72.0397 116.048 72.0397C133.395 72.0397 142.678 77.0397 143.469 79.0483Z" fill="black"/>
<path d="M116.048 147.886C93.8581 147.886 72.5246 145.463 54.3543 140.879C51.7554 140.221 49.1216 141.797 48.4667 144.394C47.8118 146.991 49.386 149.626 51.9824 150.281C70.9168 155.058 93.0707 157.583 116.049 157.583H116.066C118.745 157.583 120.906 155.412 120.906 152.735C120.906 150.057 118.726 147.886 116.048 147.886Z" fill="black"/>
<path d="M116.048 177.065C99.2528 177.065 83.1521 175.705 68.1938 173.022C65.5535 172.549 63.0374 174.303 62.5655 176.939C62.0929 179.575 63.8455 182.095 66.4819 182.568C82.0046 185.351 98.6813 186.763 116.048 186.763H116.066C118.744 186.763 120.906 184.592 120.906 181.914C120.906 179.236 118.726 177.065 116.048 177.065Z" fill="black"/>
<path d="M116.048 206.243C106.857 206.243 97.7259 205.824 88.9091 204.997C86.2359 204.745 83.8788 206.706 83.6293 209.372C83.3785 212.038 85.338 214.402 88.0041 214.652C97.1201 215.508 106.556 215.941 116.048 215.941H116.065C118.744 215.941 120.905 213.77 120.905 211.093C120.905 208.415 118.726 206.243 116.048 206.243Z" fill="black"/>
<path d="M35.7471 285.377C57.2713 293.281 85.7893 297.634 116.048 297.634H174.599C177.277 297.634 179.448 295.463 179.448 292.786C179.448 290.108 177.277 287.937 174.599 287.937H116.048C53.3743 287.938 9.69736 268.972 9.69736 251.951V97.9229C32.8391 118.92 84.5474 124.732 116.048 124.732H116.066H317.332C317.782 124.732 318.19 125.015 318.346 125.436L320.995 132.58C321.405 133.686 321.405 134.904 320.994 136.01L318.172 143.62C316.956 146.902 316.956 150.516 318.173 153.795L320.995 161.402C321.405 162.507 321.405 163.726 320.995 164.832L318.174 172.437C316.956 175.719 316.956 179.334 318.173 182.615L320.995 190.22C321.405 191.327 321.405 192.545 320.994 193.651L318.174 201.255C316.956 204.536 316.956 208.151 318.174 211.434L320.994 219.038C321.405 220.143 321.405 221.361 320.994 222.469L318.174 230.07C316.956 233.352 316.956 236.967 318.174 240.249L320.994 247.85C321.405 248.956 321.405 250.174 320.995 251.281L318.174 258.884C316.956 262.166 316.956 265.781 318.174 269.063L320.994 276.664C321.405 277.77 321.405 278.989 320.994 280.096L318.346 287.234C318.19 287.655 317.783 287.938 317.333 287.938H197.226C194.548 287.938 192.378 290.109 192.378 292.787C192.378 295.465 194.548 297.636 197.226 297.636H317.333C321.817 297.636 325.878 294.811 327.438 290.606L330.086 283.47C331.305 280.187 331.305 276.572 330.086 273.289L327.267 265.69C326.855 264.583 326.855 263.364 327.266 262.257L330.087 254.654C331.305 251.372 331.305 247.757 330.086 244.476L327.266 236.875C326.855 235.769 326.855 234.55 327.266 233.443L330.086 225.843C331.305 222.561 331.305 218.945 330.087 215.664L327.267 208.062C326.855 206.954 326.855 205.735 327.267 204.628L330.087 197.025C331.305 193.744 331.305 190.129 330.087 186.848L327.265 179.242C326.855 178.136 326.855 176.917 327.265 175.811L330.087 168.206C331.305 164.924 331.305 161.309 330.087 158.028L327.265 150.422C326.855 149.316 326.855 148.098 327.265 146.992L330.087 139.383C331.305 136.101 331.305 132.488 330.087 129.207L327.438 122.064C325.878 117.859 321.817 115.034 317.332 115.034H232.097V79.0474C232.097 66.4123 220.78 55.2533 199.371 46.7771C196.882 45.7932 194.064 47.0105 193.078 49.5008C192.093 51.9904 193.312 54.8078 195.802 55.7937C212.705 62.4856 222.4 70.9611 222.4 79.0467C222.4 96.0708 178.715 115.033 116.049 115.033C53.3781 115.034 9.69736 96.0701 9.69736 79.048C9.69736 62.0272 53.3743 43.0617 116.048 43.0617C136.79 43.0617 156.952 45.201 174.356 49.2474C176.965 49.8531 179.57 48.2311 180.176 45.6231C180.783 43.0145 179.161 40.4092 176.552 39.8021C158.44 35.5902 137.518 33.3644 116.048 33.3644C85.7893 33.3644 57.2713 37.7172 35.7471 45.6218C12.6951 54.087 0 65.9579 0 79.048V79.0512V79.0532V251.951C0 265.041 12.6951 276.912 35.7471 285.377ZM222.399 97.9275V115.034H188.735C200.223 111.504 213.498 106.015 222.399 97.9275Z" fill="black"/>
</g>
<defs>
<clipPath id="clip0">
<rect width="331" height="331" fill="white"/>
</clipPath>
</defs>
</svg>
