<svg width="36" height="32" viewBox="0 0 36 32" fill="none" xmlns="http://www.w3.org/2000/svg">
<path d="M16.75 7C16.336 7 16 7.33604 16 7.75C16 8.16396 16.336 8.5 16.75 8.5C17.164 8.5 17.5 8.16396 17.5 7.75C17.5 7.33604 17.164 7 16.75 7Z" fill="#3E3E3E"/>
<path d="M5.75 19.5C6.16396 19.5 6.5 19.164 6.5 18.75C6.5 18.336 6.16396 18 5.75 18C5.33604 18 5 18.336 5 18.75C5 19.164 5.33604 19.5 5.75 19.5Z" fill="#3E3E3E"/>
<path d="M23.625 0C17.295 0 12.0995 4.31793 11.6977 9.75679C5.66922 10.056 0 14.3568 0 20.1739C0 22.6049 0.97229 24.9603 2.74219 26.8266C3.09238 28.2549 2.66721 29.7687 1.61224 30.8125C1.41119 31.0114 1.35104 31.3106 1.45981 31.5707C1.56857 31.8304 1.82483 32 2.10938 32C4.11465 32 6.04715 31.222 7.48306 29.8511C8.8819 30.3228 10.707 30.6087 12.375 30.6087C18.7042 30.6087 23.8991 26.2918 24.302 20.8541C25.7742 20.7894 27.3054 20.5204 28.5169 20.112C29.9529 21.4829 31.8853 22.2609 33.8906 22.2609C34.1752 22.2609 34.4314 22.0913 34.5402 21.8315C34.649 21.5715 34.5888 21.2723 34.3878 21.0734C33.3328 20.0296 32.9076 18.5158 33.2578 17.0875C35.0277 15.2212 36 12.8658 36 10.4348C36 4.39049 29.8941 0 23.625 0ZM12.375 29.2174C10.7155 29.2174 8.82449 28.8951 7.55777 28.3965C7.28641 28.2894 6.97632 28.3598 6.77884 28.5731C5.92987 29.4913 4.82602 30.1315 3.62329 30.4258C4.28604 29.1696 4.45523 27.6886 4.05203 26.2853C4.02017 26.1747 3.96112 26.0736 3.8801 25.9913C2.28488 24.3658 1.40625 22.2997 1.40625 20.1739C1.40625 15.2717 6.4292 11.1304 12.375 11.1304C17.9896 11.1304 22.9219 14.9932 22.9219 20.1739C22.9219 25.1606 18.1906 29.2174 12.375 29.2174ZM32.1199 16.2522C32.0389 16.3348 31.9798 16.4359 31.948 16.5462C31.5448 17.9495 31.714 19.4304 32.3767 20.6867C31.174 20.3927 30.0701 19.7522 29.2212 18.834C29.0237 18.6209 28.7136 18.5503 28.4422 18.6573C27.3444 19.0894 25.7783 19.3886 24.2998 19.4609C24.0944 16.8302 22.7681 14.3576 20.5005 12.5217H29.6719C30.0602 12.5217 30.375 12.2103 30.375 11.8261C30.375 11.4418 30.0602 11.1304 29.6719 11.1304H18.3403C16.7443 10.3266 14.9521 9.85788 13.1075 9.75951C13.5115 5.08723 18.0744 1.3913 23.625 1.3913C29.5708 1.3913 34.5938 5.53261 34.5938 10.4348C34.5938 12.5606 33.7151 14.6266 32.1199 16.2522Z" fill="#3E3E3E"/>
<path d="M17.3151 18H8.68493C8.30661 18 8 18.3357 8 18.75C8 19.1643 8.30661 19.5 8.68493 19.5H17.3151C17.6934 19.5 18 19.1643 18 18.75C18 18.3357 17.6934 18 17.3151 18Z" fill="#3E3E3E"/>
<path d="M17.3548 22H6.64516C6.28881 22 6 22.3357 6 22.75C6 23.1643 6.28881 23.5 6.64516 23.5H17.3548C17.7112 23.5 18 23.1643 18 22.75C18 22.3357 17.7112 22 17.3548 22Z" fill="#3E3E3E"/>
<path d="M29.2466 7H19.7534C19.3373 7 19 7.33574 19 7.75C19 8.16426 19.3373 8.5 19.7534 8.5H29.2466C29.6627 8.5 30 8.16426 30 7.75C30 7.33574 29.6627 7 29.2466 7Z" fill="#3E3E3E"/>
</svg>
