<svg width="23" height="34" viewBox="0 0 23 34" fill="none" xmlns="http://www.w3.org/2000/svg">
<path d="M11.3545 2.65651C10.9872 2.65386 10.6877 2.94936 10.6851 3.31593C10.6824 3.68249 10.9773 3.98198 11.3445 3.98464C11.7111 3.9873 12.0105 3.69245 12.0132 3.32589C12.0159 2.95932 11.721 2.65983 11.3545 2.65651Z" fill="#177EE8"/>
<path d="M11.3242 6.64099C8.76023 6.62279 6.66039 8.69129 6.641 11.2545C6.62168 13.8176 8.6913 15.9184 11.2545 15.9377C11.2664 15.9378 11.2782 15.9379 11.2901 15.9379C13.837 15.9379 15.9185 13.8756 15.9378 11.3242C15.9571 8.76128 13.8875 6.66031 11.3242 6.64099ZM11.29 14.6098C11.2816 14.6098 11.2728 14.6098 11.2645 14.6097C9.43359 14.5959 7.95525 13.0952 7.96906 11.2645C7.98281 9.44194 9.46952 7.96892 11.2888 7.96892C11.2972 7.96892 11.3059 7.96898 11.3143 7.96905C13.1452 7.98286 14.6235 9.48351 14.6097 11.3143C14.5959 13.1368 13.1092 14.6098 11.29 14.6098Z" fill="#177EE8"/>
<path d="M14.1867 3.16031C13.8413 3.03772 13.4615 3.21868 13.3389 3.56439C13.2164 3.9101 13.3974 4.28962 13.743 4.4122C16.668 5.44887 18.6174 8.23469 18.594 11.3443C18.5913 11.711 18.8863 12.0106 19.2531 12.0133C19.2547 12.0133 19.2565 12.0133 19.2582 12.0133C19.6225 12.0133 19.9193 11.7193 19.9221 11.3543C19.9497 7.67886 17.6448 4.38597 14.1867 3.16031Z" fill="#177EE8"/>
<path d="M15.3638 24.9982C19.7807 19.3128 22.541 16.3481 22.5783 11.374C22.625 5.11562 17.5461 0 11.2883 0C5.10344 0 0.0473958 5.0089 0.000380107 11.2046C-0.0376043 16.3136 2.77398 19.2743 7.22134 24.9972C2.79702 25.6584 0.000380107 27.3197 0.000380107 29.3516C0.000380107 30.7128 1.25852 31.9342 3.54309 32.7908C5.62248 33.5706 8.37349 34 11.2893 34C14.2052 34 16.9562 33.5706 19.0356 32.7908C21.3201 31.9341 22.5783 30.7127 22.5783 29.3516C22.5783 27.3207 19.7842 25.6598 15.3638 24.9982ZM1.32844 11.2146C1.36988 5.74747 5.83073 1.32813 11.2884 1.32813C16.8107 1.32813 21.2914 5.84296 21.2502 11.3641C21.2149 16.0878 18.2876 18.9989 13.6141 25.0912C12.7805 26.1773 12.015 27.2042 11.2903 28.2088C10.5678 27.2036 9.81757 26.1951 8.97148 25.0908C4.10482 18.7434 1.29245 16.0523 1.32844 11.2146ZM11.2893 32.6719C5.58828 32.6719 1.32844 30.919 1.32844 29.3516C1.32844 28.1892 3.87499 26.7209 8.15674 26.2124C9.10323 27.4543 9.93305 28.5825 10.7469 29.7348C10.8712 29.9108 11.0732 30.0156 11.2887 30.0157C11.2889 30.0157 11.2891 30.0157 11.2893 30.0157C11.5046 30.0157 11.7066 29.9113 11.8311 29.7356C12.6372 28.5984 13.4898 27.4423 14.4282 26.2131C18.7059 26.7221 21.2502 28.19 21.2502 29.3517C21.2502 30.919 16.9904 32.6719 11.2893 32.6719Z" fill="#177EE8"/>
</svg>
