<svg width="27" height="29" viewBox="0 0 27 29" fill="none" xmlns="http://www.w3.org/2000/svg">
<path d="M10.8888 14.3431C11.3583 14.5492 11.9052 14.3361 12.1118 13.8671C12.3179 13.3981 12.1048 12.8502 11.6358 12.6441C8.62179 11.3196 7.55814 8.18348 8.06484 5.77065C8.5801 3.31913 10.4651 1.85537 13.1076 1.85537C14.8006 1.85537 16.1231 2.41181 17.0385 3.50916C18.1413 4.83121 18.4047 6.68301 18.177 7.93262C17.6643 10.7431 15.7778 12.994 12.2395 15.0163C11.7941 15.2701 11.6398 15.8371 11.8941 16.2824C12.065 16.582 12.3782 16.7499 12.7004 16.7499C12.8567 16.7499 13.0146 16.7107 13.1603 16.6273C15.7089 15.1716 19.1909 12.7195 20.0027 8.26589C20.2857 6.71366 20.052 4.22544 18.4635 2.32085C17.5804 1.26218 15.9346 0 13.1076 0C8.88522 0 6.79615 2.78428 6.24872 5.38912C5.58824 8.53431 6.96953 12.62 10.8888 14.3431Z" fill="#177EE8"/>
<path d="M25.4803 18.8275C24.3523 15.8814 19.482 14.0135 18.9301 13.8104C18.4756 13.6431 17.9685 13.8531 17.7664 14.2935C17.7377 14.3568 15.1721 19.9204 13.1755 23.1003C11.1794 19.9204 8.6148 14.3563 8.58563 14.2935C8.38353 13.8537 7.87785 13.6431 7.42195 13.8104C6.87004 14.0135 1.99867 15.8814 0.870678 18.8266C0.162898 20.6724 0.196599 22.6534 0.226789 24.4012C0.232339 24.7249 0.237833 25.0401 0.237833 25.3417C0.237833 25.8544 0.653518 26.2702 1.16578 26.2702C1.67803 26.2702 2.09372 25.8545 2.09372 25.3417C2.09372 25.0296 2.08817 24.7043 2.08267 24.3695C2.05554 22.7902 2.02439 21.0012 2.60393 19.4911C3.19107 17.9575 5.71497 16.5666 7.27621 15.8749C8.21469 17.8615 10.6878 22.9586 12.43 25.311C12.7799 25.7835 13.5716 25.783 13.9214 25.311C15.6627 22.959 18.1373 17.8615 19.0758 15.8749C20.6371 16.5666 23.16 17.9575 23.7481 19.4911C24.1939 20.6548 24.4362 23.227 24.4679 27.1442H0.927942C0.415741 27.1442 0 27.5599 0 28.0722C0 28.5844 0.415685 29.0001 0.927942 29.0001H25.3994C25.9121 29.0001 26.3278 28.5844 26.3273 28.0722C26.3273 25.0516 26.2393 20.8071 25.4803 18.8275Z" fill="#177EE8"/>
</svg>
