<svg width="357" height="357" viewBox="0 0 357 357" fill="none" xmlns="http://www.w3.org/2000/svg">
<g clip-path="url(#clip0)">
<path d="M317.592 52.8312C315.492 51.3467 312.84 53.8248 314.236 55.9843C325.818 73.9019 347.579 116.318 309.85 139.374L321.727 161.382C332.763 154.516 351.771 138.281 351.771 113.756C351.771 93.4533 338.321 67.4892 317.592 52.8312Z" fill="white"/>
<path d="M331.308 225.12C326.445 218.433 323.824 210.376 323.824 202.107V170.926C323.824 145.082 304.241 123.442 278.524 120.87L163.338 109.93C156.982 109.326 151.188 106.035 147.416 100.885L142.343 93.9595L141.757 93.5635C143.994 85.9368 142.897 76.797 139.723 70.2043C134.43 59.2105 115.444 35.9692 96.405 35.9692H81.4082C72.8653 35.9692 64.6445 39.2296 58.4235 45.0846L44.3526 58.3271L9.33658 68.1411C6.52938 68.9123 4.78412 71.7083 5.32451 74.5692L7.44001 84.5109C8.35343 89.3457 12.3028 92.9206 17.1041 93.4944L18.2825 100.828C19.0844 104.957 22.0673 108.288 26.0828 109.541C34.3329 112.115 49.3827 115.836 65.9958 115.6C68.7026 115.562 70.9882 117.547 71.1235 120.251C71.5035 127.866 72.8374 139.665 77.0161 153.046L83.083 169.835C87.533 180.594 93.7477 193.236 101.992 207.145C128.154 251.276 128.193 293.082 128.193 293.082L112.015 301.171C108.227 303.065 105.835 306.936 105.835 311.17V315.44C105.835 318.527 108.337 321.029 111.424 321.029H140.258C146.074 321.029 150.919 316.57 151.398 310.773L158.643 223.284C188.471 231.528 237.386 225.744 260.967 214.335C284.979 247.984 318.233 254.887 318.233 254.887V293.082L297.313 301.449C293.068 303.147 290.286 307.258 290.286 311.828V315.439C290.286 318.526 292.788 321.029 295.875 321.029H325.356C330.897 321.029 335.602 316.969 336.414 311.488L345.846 247.83C346.061 246.382 345.698 244.907 344.837 243.723L331.308 225.12Z" fill="#FFCE54"/>
<path d="M77.0166 153.047L83.0835 169.836C87.5335 180.594 93.7482 193.237 101.993 207.145C106.321 214.446 109.875 221.659 112.891 228.653C108.498 210.248 101.637 189.22 97.8007 176.752C89.4168 149.504 91.7485 119.456 91.1635 106.884C90.4648 91.8628 72.2996 92.3279 67.1754 93.7259L17.9692 98.8843L18.2816 100.826C19.0835 104.955 22.0664 108.287 26.0819 109.54C34.3313 112.114 49.3818 115.834 65.9949 115.598C68.7017 115.56 70.9873 117.546 71.1226 120.249C71.5047 127.866 72.8379 139.665 77.0166 153.047Z" fill="white"/>
<path d="M139.722 70.2043C136.151 62.7861 126.344 49.7911 114.494 42.1233C106.072 36.6734 94.7602 40.5 91.3387 49.9299L91.285 50.0777C89.7587 54.2829 90.2991 58.8444 92.2507 62.8698C99.2381 77.2837 96.2963 105.138 118.763 107.584C143.989 110.33 146.534 84.3526 139.722 70.2043Z" fill="#FFCE54"/>
<path d="M260.969 214.336C258.021 209.67 255.728 205.024 254.103 201.339C252.28 197.207 247.834 194.904 243.423 195.87C217.08 201.643 189.367 197.723 173.534 194.38C166.572 192.91 159.971 197.981 159.599 205.087L158.645 223.285C188.474 231.529 237.389 225.744 260.969 214.336Z" fill="white"/>
<path d="M74.7448 175.589C70.1142 175.589 66.3608 171.835 66.3608 167.205V161.615C66.3608 156.985 70.1142 153.231 74.7448 153.231C79.3753 153.231 83.1287 156.985 83.1287 161.615V167.205C83.1294 171.834 79.3753 175.589 74.7448 175.589Z" fill="#177EE8"/>
<path d="M335.537 222.045C331.295 216.213 329.053 209.319 329.053 202.108V170.926C329.053 168.193 328.855 165.505 328.476 162.875C339.959 155.249 357 139.578 357 113.756C357 90.8902 341.696 63.4715 320.611 48.5605C317.597 46.4296 313.628 46.7274 310.962 49.287C308.316 51.8265 307.856 55.7472 309.844 58.8228C323.584 80.0769 329.012 97.7492 325.977 111.347C324.221 119.218 319.695 125.674 312.197 131.014C303.493 122.585 291.987 116.961 279.019 115.664L163.832 104.724C158.968 104.262 154.522 101.737 151.634 97.7952L147.508 92.1634C149.138 83.7815 147.643 74.602 144.434 67.9361C138.188 54.9656 117.689 30.7404 96.404 30.7404H81.4072C71.4935 30.7404 62.058 34.4819 54.8385 41.2761L41.7034 53.6387L7.95151 63.0985C2.55815 64.5795 -0.85288 70.0447 0.186047 75.5398L2.40405 87.2755C3.48273 92.982 7.51711 97.5755 12.7382 99.5662L13.1378 101.762C14.2304 107.776 18.4998 112.64 24.2801 114.456C32.5873 117.066 47.6915 120.91 64.5807 120.91C65.0186 120.91 65.4614 120.899 65.9014 120.894C65.916 125.766 66.5903 135.23 70.3736 148.978C65.1902 150.903 61.48 155.885 61.48 161.73V167.32C61.48 174.827 67.5874 180.934 75.0934 180.934C77.4119 180.934 79.595 180.348 81.5083 179.322C85.9652 189.166 91.3133 199.386 97.4938 209.811C118.51 245.263 122.189 279.544 122.829 289.917L109.676 296.494C104.081 299.291 100.606 304.915 100.606 311.17V321.029C100.606 323.918 102.947 326.259 105.835 326.259H140.259C148.729 326.259 155.912 319.647 156.611 311.205L163.464 228.438C172.832 230.716 183.471 231.69 194.346 231.69C218.75 231.69 244.304 226.804 259.169 220.854C278.859 246.495 303.312 255.996 313.003 258.912V289.542L295.37 296.594C289.104 299.101 285.056 305.081 285.056 311.829V321.029C285.056 323.917 287.397 326.258 290.285 326.258H325.356C333.427 326.258 340.404 320.238 341.587 312.254L351.352 246.338C351.553 244.983 351.214 243.603 350.408 242.496L335.537 222.045ZM336.185 113.626C339.034 100.858 336.331 86.2631 327.928 69.3293C339.215 82.3947 346.542 99.1932 346.542 113.756C346.542 132.08 336.124 144.347 325.762 152.016C324.086 147.356 321.81 142.983 319.012 138.994C328.159 132.239 333.931 123.726 336.185 113.626ZM75.0941 170.476C73.3545 170.476 71.9397 169.061 71.9397 167.321V161.731C71.9397 159.992 73.3552 158.577 75.0941 158.577C76.8331 158.577 78.2486 159.992 78.2486 161.731V167.321C78.2486 169.061 76.8338 170.476 75.0941 170.476ZM331.243 310.724C330.814 313.617 328.284 315.801 325.358 315.801H295.517V311.83C295.517 309.384 296.985 307.216 299.256 306.307L320.176 297.939C322.162 297.145 323.463 295.222 323.463 293.084V254.889C323.463 252.405 321.716 250.264 319.282 249.766C318.896 249.687 280.427 241.391 258.026 199.879C256.655 197.337 253.483 196.389 250.941 197.76C248.398 199.132 247.45 202.304 248.822 204.846C250.171 207.346 251.574 209.73 253.016 212.015C232.161 219.609 191.264 225.061 164.339 217.874L164.845 211.77C165.083 208.891 162.943 206.365 160.065 206.126C157.176 205.878 154.661 208.028 154.421 210.906L146.187 310.342C145.934 313.403 143.33 315.8 140.259 315.8H111.065V311.17C111.065 308.902 112.325 306.863 114.353 305.849L130.531 297.76C132.304 296.873 133.423 295.06 133.422 293.077C133.421 291.312 133.076 249.325 106.491 204.478C99.297 192.342 93.2733 180.525 88.5437 169.313C88.6399 168.661 88.7062 167.999 88.7062 167.32V161.73C88.7062 158.973 87.8764 156.408 86.4617 154.262C96.8593 151.776 116.932 145.668 134.953 132.617C137.292 130.923 137.815 127.654 136.121 125.314C134.427 122.976 131.158 122.453 128.819 124.146C109.65 138.028 87.2838 143.475 80.1152 144.943C76.6986 132.089 76.3206 123.732 76.3597 120.235C83.0981 119.333 88.2718 116.634 88.4984 116.514C91.0441 115.166 92.0126 112.019 90.6746 109.468C89.3372 106.916 86.18 105.932 83.6231 107.261C83.582 107.283 79.4388 109.412 74.3244 109.952C55.1258 111.982 36.6929 107.394 27.4136 104.478C25.6217 103.915 24.2362 102.514 23.6421 100.726C39.1779 100.919 58.0083 100.49 69.2824 97.8893C72.0966 97.2402 73.8516 94.4323 73.2025 91.6181C72.5526 88.8039 69.7433 87.0489 66.9305 87.6988C57.8947 89.7843 40.661 90.6656 18.4021 90.1768C15.5601 90.1141 13.2068 88.1227 12.6797 85.3329L10.4617 73.5965C10.4268 73.4139 10.5405 73.2333 10.7462 73.1761L45.7615 63.3607C46.5745 63.1334 47.3199 62.7115 47.9342 62.1335L62.0043 48.891C67.2764 43.9299 74.1661 41.1973 81.4051 41.1973H96.4019C112.08 41.1973 129.604 61.2472 135.008 72.4718C138.359 79.432 139.071 90.5304 134.46 97.0547C131.422 101.353 126.328 103.143 119.325 102.383C108.002 101.15 105.164 91.9458 101.836 76.9323C99.8109 67.7988 97.899 59.1729 92.0984 53.7928C89.9815 51.8293 86.6723 51.9534 84.7081 54.0703C82.7446 56.1879 82.8687 59.4964 84.9863 61.4613C88.3938 64.622 89.9634 71.7014 91.6249 79.1956C94.732 93.2086 98.5983 110.648 118.194 112.781C119.501 112.923 120.893 113.011 122.337 113.011C129.199 113.011 137.212 111.01 142.77 103.395L143.195 103.974C144.103 105.213 145.109 106.363 146.194 107.42C145.425 108.433 144.627 109.43 143.801 110.405C141.936 112.61 142.211 115.91 144.416 117.775C145.398 118.607 146.597 119.012 147.791 119.012C149.276 119.012 150.752 118.383 151.786 117.161C152.885 115.863 153.938 114.526 154.95 113.17C157.447 114.199 160.101 114.874 162.842 115.135L278.003 126.073C301.143 128.386 318.592 147.669 318.592 170.925V202.106C318.592 211.542 321.526 220.564 327.076 228.195L340.693 246.919L331.243 310.724Z" fill="black"/>
<path d="M66.7667 58.6869H66.7102C63.8221 58.6869 61.5093 61.0276 61.5093 63.9164C61.5093 66.8052 63.8786 69.1459 66.7667 69.1459C69.6548 69.1459 71.9962 66.8052 71.9962 63.9164C71.9962 61.0276 69.6548 58.6869 66.7667 58.6869Z" fill="black"/>
</g>
<defs>
<clipPath id="clip0">
<rect width="357" height="357" fill="white"/>
</clipPath>
</defs>
</svg>
