<svg width="386" height="386" viewBox="0 0 386 386" fill="none" xmlns="http://www.w3.org/2000/svg">
<path d="M131.482 204.158C125.073 206.646 117.836 203.932 114.669 197.825L55.8648 84.5883C49.0042 71.1688 54.2062 54.809 67.6257 47.9484C68.455 47.5715 69.2089 47.1945 70.0382 46.8176C85.1917 40.7109 101.853 49.607 106.075 64.9867L106.15 65.2129L139.548 188.175C141.282 194.734 137.814 201.67 131.482 204.158V204.158Z" fill="#FFCE54"/>
<path d="M128.315 147.087L111.654 153.646C108.563 154.777 105.095 153.269 103.813 150.178C102.607 147.087 104.114 143.544 107.205 142.338L125.073 135.326L128.315 147.087Z" fill="#FA6D00"/>
<path d="M134.799 170.684L120.474 176.037C117.383 177.093 113.991 175.66 112.634 172.569C111.427 169.478 112.935 165.935 116.102 164.729L131.632 158.923L134.799 170.684Z" fill="#FA6D00"/>
<path d="M202.424 93.409C197.373 89.941 194.809 83.8344 195.94 77.7277C198.73 63.7051 189.683 50.0594 175.585 47.1945C175.434 47.1945 175.208 47.1191 175.057 47.1191C169.252 46.1391 164.427 41.9926 162.618 36.3383C162.165 34.9813 161.638 33.6242 161.034 32.3426C154.626 19.5262 139.096 14.3242 126.279 20.7324C114.141 26.7637 108.713 41.1633 113.84 53.6781C116.479 60.1617 117.76 66.0422 113.312 72.2996C105.019 83.9852 107.809 100.194 119.494 108.412C119.57 108.487 119.72 108.563 119.796 108.638C124.847 112.181 127.259 118.363 126.053 124.395C123.339 138.417 132.537 152.063 146.635 154.777C159.3 157.189 171.74 150.027 176.037 137.889C188.854 144.298 204.384 139.02 210.792 126.279C216.522 114.745 212.979 100.797 202.424 93.409Z" fill="white"/>
<path d="M261.229 114.141C257.836 109.015 257.761 102.38 261.078 97.1785C268.994 85.2668 265.677 69.1332 253.765 61.2172C253.614 61.1418 253.463 60.991 253.312 60.9156C245.924 56.2414 246.452 49.607 245.849 41.9926C244.793 27.7437 232.279 17.0383 218.03 18.0937C204.535 19.1492 194.055 30.3824 194.055 43.9527C194.055 50.9641 193 56.8445 186.592 60.991C174.529 68.6808 170.986 84.739 178.751 96.8015C178.827 96.8769 178.902 97.0277 178.977 97.1031C182.295 102.305 182.295 108.939 178.827 114.066C171.061 126.053 174.454 142.111 186.441 149.952C197.222 156.963 211.546 155.003 219.99 145.353C229.489 156.059 245.849 157.114 256.554 147.69C266.204 139.246 268.164 124.922 261.229 114.141V114.141Z" fill="white"/>
<path d="M301.563 186.969L229.188 162.844L269.069 43.2742C273.894 28.8746 288.595 17.7168 303.9 18.0937C313.399 18.3199 322.295 20.1293 329.759 26.1605C341.821 35.8105 346.571 51.9441 341.67 66.5699L301.563 186.969Z" fill="#FFCE54"/>
<path d="M253.312 126.656V343.781H72.375V126.656L90.4688 138.719L108.562 126.656L126.656 138.719L144.75 126.656L162.844 138.719L180.938 126.656L199.031 138.719L217.125 126.656L235.219 138.719L253.312 126.656Z" fill="#FFCE54"/>
<path d="M253.312 176.64V343.781H72.375V307.217C138.794 284.901 204.61 244.266 253.312 176.64Z" fill="white" fill-opacity="0.94"/>
<path d="M325.688 126.656V343.781H253.312V126.656L271.406 138.719L289.5 126.656L307.594 138.719L325.688 126.656Z" fill="#FFCE54"/>
<path d="M73.5059 367.906C100.154 367.906 121.756 346.304 121.756 319.656C121.756 293.009 100.154 271.406 73.5059 271.406C46.8581 271.406 25.2559 293.009 25.2559 319.656C25.2559 346.304 46.8581 367.906 73.5059 367.906Z" fill="#177EE8"/>
<path d="M174.906 241.25L180.938 253.313C173.474 260.776 170.458 271.632 173.021 281.961L174.906 289.5H150.781V280.302C150.781 263.792 160.13 248.638 174.906 241.25Z" fill="#177EE8"/>
<path d="M139.548 367.906C131.934 367.906 125.149 362.93 122.962 355.618L109.392 310.308C105.622 297.718 113.915 283.469 127.863 283.469C134.648 283.469 140.905 287.012 144.373 292.817L156.813 313.625V350.642C156.813 360.141 149.047 367.906 139.548 367.906V367.906Z" fill="#FFCE54"/>
<path d="M186.139 367.906C193.754 367.906 200.539 362.93 202.725 355.618L216.296 310.308C220.141 297.567 211.697 283.469 197.825 283.469C191.04 283.469 184.782 287.012 181.314 292.817L168.875 313.625V350.642C168.875 360.141 176.64 367.906 186.139 367.906V367.906Z" fill="#FFCE54"/>
<path d="M162.844 283.469C172.871 283.469 180.938 291.536 180.938 301.562V349.812C180.938 359.839 172.871 367.906 162.844 367.906C152.817 367.906 144.75 359.839 144.75 349.812V301.562C144.75 291.536 152.817 283.469 162.844 283.469Z" fill="#FFCE54"/>
<path d="M333.528 21.4863C322.37 12.5149 307.066 9.80079 292.516 14.0227C278.342 18.1691 267.712 28.1961 263.34 41.3895L238.988 114.518L236.124 110.296L226.021 117.006V92.6551L242.758 81.4973L236.048 71.4703L225.946 78.1801V50.5117H213.883V78.1047L203.856 71.3949L197.147 81.4219L213.883 92.5797V116.931L203.856 110.221L197.147 120.248L206.42 126.43L198.956 131.406L184.179 121.605C183.501 121.153 182.822 120.851 182.068 120.7C182.521 119.57 183.124 118.439 183.802 117.383C188.477 110.221 188.477 101.023 183.878 93.7859C179.656 87.3777 179.807 77.8031 184.179 71.3949C186.064 68.6809 193.754 63.1773 195.79 60.4633C199.785 55.1859 200.238 49.1547 200.69 43.8773C200.992 39.7309 201.293 36.1121 203.102 33.3227C208.908 24.0496 221.196 21.2602 230.469 27.0652C232.429 28.2715 234.088 29.8547 235.52 31.5887C238.762 35.6598 239.064 39.7309 239.441 45.2344C239.592 47.1191 239.742 49.1547 239.968 51.2656L251.956 49.7578C251.729 47.9484 251.579 46.1391 251.503 44.4051C251.051 37.8461 250.523 31.1363 245.02 24.125C234.088 10.2531 214.034 7.91602 200.162 18.7723C197.297 21.034 194.809 23.7481 192.849 26.8391C189.532 32.1164 189.08 37.8461 188.627 42.8219C188.552 43.9527 188.477 45.0082 188.326 46.0637C184.632 43.5758 180.41 41.8418 175.962 41.0125C172.343 40.4094 169.327 37.8461 168.197 34.3781C165.558 26.1606 159.828 19.3754 152.138 15.4551C144.599 11.4594 135.779 10.7055 127.636 13.3441C115.649 17.3399 106.904 28.5731 105.849 41.4648C105.472 46.3652 106.678 50.6625 107.884 54.5074C102.23 45.2344 92.3536 39.3539 81.4974 38.6754L81.7235 11.9117L69.661 11.8363L69.5103 29.2516L62.2728 10.7055L51.2657 15.3043L58.5032 33.8504L46.5915 21.1848L37.8462 29.4023L56.1661 49.0039C46.2146 59.257 43.8774 74.6367 50.5118 87.3024L63.0267 111.427L73.7321 105.848L61.2173 81.7234C55.8645 71.3949 59.8603 58.6539 70.1888 53.3012C80.5173 47.9484 93.2583 51.9441 98.611 62.2727C99.2896 63.6297 99.8173 64.9867 100.27 66.4945L100.496 67.2484L81.045 74.8629L85.4177 86.0961L103.662 79.0094V79.0848C102.531 83.382 102.23 87.8301 102.984 92.2781L89.8657 97.4047L94.2384 108.638L107.206 103.587C110.221 108.638 115.423 113.312 115.423 113.312L98.611 119.871L100.571 124.771L90.5442 131.481L75.7677 121.68C72.9782 119.796 69.2841 120.55 67.3993 123.339C66.7208 124.319 66.4192 125.525 66.4192 126.656V253.312H78.4817V137.889L87.2271 143.695C89.2626 145.052 91.9013 145.052 93.9368 143.695L108.713 133.894L123.49 143.695C125.525 145.052 128.164 145.052 130.2 143.695L144.976 133.894L159.753 143.695C161.788 145.052 164.427 145.052 166.463 143.695L181.239 133.894L196.016 143.695C198.051 145.052 200.69 145.052 202.725 143.695L217.502 133.894L232.279 143.695C234.314 145.052 236.953 145.052 238.988 143.695L247.734 137.889V337.75H223.609V349.812H326.14C329.457 349.812 332.171 347.098 332.171 343.781V126.656C332.171 124.847 331.342 123.188 329.985 122.057L347.852 68.5301C353.054 51.4918 347.475 32.7195 333.528 21.4863V21.4863ZM173.926 100.571C174.454 101.4 174.831 102.305 175.057 103.285L170.911 109.392L161.713 86.7746L169.78 74.8629C167.669 83.5328 169.026 93.1828 173.926 100.571ZM131.858 128.089C133.442 121.68 132.16 114.971 128.466 109.543C124.922 104.416 119.268 100.873 116.403 95.2938C114.895 92.3535 114.292 88.9609 114.669 85.6438C115.574 78.2555 121.153 72.0734 121.982 64.6852C122.585 59.257 120.399 53.9797 119.268 48.627C116.629 36.7906 124.093 24.8035 136.834 24.2004C143.016 23.9742 148.897 26.6129 152.817 31.3625C156.285 35.6598 157.868 41.3141 161.336 45.6867C163.899 48.9285 167.367 51.2656 171.288 52.3965C175.133 53.5273 179.656 53.6781 182.219 56.7691C177.771 59.9356 174.152 64.082 171.665 68.9824L163.07 63.2527L156.285 73.0535L145.881 47.6469L134.799 52.1703L145.127 77.6524L133.366 75.3906L130.954 87.1516L150.329 91.5242L159.753 113.689L147.992 111.427L146.559 118.514C146.484 118.589 134.949 125.827 131.858 128.089V128.089ZM152.817 124.771L165.256 127.335L166.086 129.37L162.844 131.481L152.817 124.771ZM230.62 128.39L235.294 125.224L233.56 130.35L230.62 128.39ZM259.344 137.889L268.089 143.695C270.125 145.052 272.763 145.052 274.799 143.695L283.544 137.889V305.03L259.419 329.155V137.889H259.344ZM319.656 137.889V329.155L295.531 305.03V137.889L304.277 143.695C306.312 145.052 308.951 145.052 310.986 143.695L319.656 137.889ZM289.5 316.113L311.137 337.75H267.863L289.5 316.113ZM335.941 64.6852L315.434 126.204L307.594 131.406L292.817 121.605C290.782 120.248 288.143 120.248 286.108 121.605L271.331 131.406C271.331 131.406 256.253 121.379 256.102 121.304C254.142 120.248 251.729 120.399 249.92 121.605L249.015 122.208L274.724 45.159C277.89 35.7352 285.58 28.6484 295.908 25.5574C306.614 22.391 317.847 24.3512 325.989 30.8348C336.016 38.977 340.012 52.4719 335.941 64.6852V64.6852Z" fill="black"/>
<path d="M282.365 60.4898L318.566 54.4685L320.545 66.3622L284.343 72.3834L282.365 60.4898Z" fill="black"/>
<path d="M270.292 96.6585L306.494 90.6372L308.472 102.531L272.271 108.552L270.292 96.6585Z" fill="black"/>
<path d="M197.901 277.437C191.266 277.362 184.858 280.001 180.184 284.75C180.108 284.675 180.033 284.6 179.958 284.449L178.978 280.453C178.978 280.378 178.978 280.378 178.902 280.302C176.565 272.085 181.239 261.681 185.31 257.61C187.12 255.8 187.572 252.936 186.441 250.674L180.41 238.611C178.902 235.596 175.283 234.389 172.343 235.897C155.456 244.266 144.826 261.53 144.901 280.302V283.544C143.469 282.489 141.885 281.509 140.302 280.604C128.617 274.346 113.463 278.267 106.527 289.274C102.531 295.682 101.476 304.352 103.738 311.966L111.578 338.127C101.174 359.01 75.8432 367.529 54.96 357.201C34.3029 346.948 25.7084 321.993 35.66 301.186C35.8107 300.884 35.9615 300.582 36.1123 300.281L36.3385 320.787L48.401 320.636L48.024 295.531L72.0736 296.662L72.6768 284.6L51.7182 283.62C57.9756 279.775 65.2131 277.664 72.526 277.437C81.2713 277.211 89.8658 279.699 97.1033 284.6L103.813 274.573C90.2428 265.45 73.2799 262.963 57.674 267.712L60.2373 261.681L49.1549 256.931L40.8619 276.231C40.2588 276.684 39.5803 277.211 38.9772 277.739L20.5818 259.344L12.0627 267.863L30.6088 286.409C30.2318 286.937 29.8549 287.464 29.4779 287.992L9.72559 296.436L14.4752 307.518L21.4111 304.503C13.0428 333.302 29.6287 363.383 58.4279 371.751C77.4264 377.255 97.9326 371.977 111.955 357.955C113.388 356.522 114.745 354.939 116.026 353.356L117.233 357.276C120.927 369.64 133.894 376.576 146.258 372.882C147.992 372.354 149.575 371.676 151.158 370.771C158.471 374.842 167.367 374.842 174.68 370.771C185.838 377.179 200.087 373.259 206.495 362.101C207.4 360.593 208.078 358.935 208.606 357.201L222.176 311.891C223.006 308.875 223.383 305.709 223.232 302.543C223.156 288.746 211.848 277.437 197.901 277.437ZM172.419 249.769L173.776 252.483C169.026 259.042 165.633 268.617 166.237 277.664C164.503 277.362 159.753 277.136 156.888 278.191C157.491 266.807 163.221 256.404 172.419 249.769ZM128.767 353.884L115.197 308.574C113.915 304.277 114.519 299.15 116.629 295.757C120.097 290.179 128.466 288.068 134.497 291.309C137.362 292.817 138.493 293.873 139.624 295.305C139.096 297.341 138.794 299.452 138.794 301.563V349.813C138.794 353.959 139.85 358.03 141.885 361.649C136.08 362.855 130.426 359.463 128.767 353.884ZM150.781 349.813V301.563C150.781 294.928 156.21 289.5 162.844 289.5C169.478 289.5 174.906 294.928 174.906 301.563V349.813C174.906 356.447 169.478 361.875 162.844 361.875C156.21 361.875 150.781 356.447 150.781 349.813ZM210.566 308.574L196.996 353.884C195.337 359.463 189.608 362.855 183.878 361.649C185.913 358.03 186.969 353.959 186.969 349.813V301.563C186.969 299.678 186.743 297.868 186.29 296.059C187.874 293.646 191.492 289.5 197.825 289.5C205.138 289.5 211.019 295.456 211.019 302.693C211.169 304.654 211.019 306.689 210.566 308.574Z" fill="black"/>
</svg>
