<svg width="357" height="357" viewBox="0 0 357 357" fill="none" xmlns="http://www.w3.org/2000/svg">
<path d="M223.46 18.1289H34.8633C25.6211 18.1289 18.1289 25.6211 18.1289 34.8633V322.137C18.1289 331.379 25.6211 338.871 34.8633 338.871H223.46C232.702 338.871 240.194 331.379 240.194 322.137V34.8633C240.194 25.6211 232.702 18.1289 223.46 18.1289Z" fill="white"/>
<path d="M270.595 270.316L244.657 296.254L237.768 303.143L211.829 329.081C205.549 335.358 197.033 338.882 188.154 338.88C179.275 338.877 170.761 335.348 164.485 329.068C158.208 322.787 154.684 314.271 154.687 305.393C154.689 296.514 158.219 288 164.499 281.723L190.437 255.813L197.326 248.896L223.264 222.986C229.558 216.793 238.044 213.339 246.873 213.375C255.702 213.411 264.16 216.934 270.403 223.177C276.646 229.421 280.169 237.878 280.205 246.707C280.241 255.536 276.787 264.022 270.595 270.316V270.316Z" fill="#FFCE54"/>
<path d="M338.871 283.369C338.888 296.408 334.294 309.033 325.902 319.013C323.819 321.514 321.514 323.82 319.013 325.902C308.381 334.855 294.777 339.493 280.89 338.899C267.003 338.305 253.845 332.522 244.016 322.693C234.188 312.865 228.405 299.706 227.811 285.82C227.217 271.933 231.855 258.329 240.808 247.697C242.904 245.209 245.209 242.905 247.696 240.808C255.793 234.015 265.66 229.676 276.138 228.299C286.616 226.922 297.27 228.566 306.846 233.036C316.422 237.506 324.523 244.617 330.196 253.534C335.869 262.45 338.879 272.801 338.871 283.369V283.369Z" fill="#177EE8"/>
<path d="M90.3657 79.9345C90.3657 83.2443 89.3843 86.4797 87.5455 89.2317C85.7067 91.9836 83.0931 94.1285 80.0353 95.3951C76.9775 96.6617 73.6128 96.9931 70.3666 96.3474C67.1205 95.7017 64.1387 94.1079 61.7984 91.7675C59.458 89.4272 57.8642 86.4454 57.2185 83.1992C56.5728 79.9531 56.9042 76.5884 58.1708 73.5306C59.4374 70.4728 61.5823 67.8592 64.3342 66.0204C67.0862 64.1816 70.3216 63.2002 73.6314 63.2002C76.6705 63.1865 79.6553 64.006 82.2614 65.5696C84.8675 67.1333 86.9953 69.3813 88.4134 72.0694C89.7041 74.4895 90.3749 77.1918 90.3657 79.9345V79.9345Z" fill="#177EE8"/>
<path d="M90.3657 145.645C90.3628 148.533 89.6133 151.371 88.19 153.884C86.7667 156.397 84.7179 158.499 82.2425 159.986C79.7671 161.474 76.9492 162.296 74.0622 162.373C71.1753 162.45 68.3175 161.78 65.7661 160.427C63.0781 159.009 60.8301 156.881 59.2664 154.275C57.7027 151.669 56.8832 148.684 56.8969 145.645C56.8969 141.207 58.66 136.95 61.7983 133.812C64.9366 130.674 69.193 128.91 73.6313 128.91C76.6705 128.897 79.6553 129.716 82.2614 131.28C84.8675 132.844 86.9952 135.092 88.4133 137.78C89.7041 140.2 90.3748 142.902 90.3657 145.645V145.645Z" fill="#177EE8"/>
<path d="M90.3657 211.355C90.3628 214.243 89.6133 217.081 88.19 219.594C86.7667 222.107 84.7179 224.209 82.2425 225.697C79.7671 227.184 76.9492 228.006 74.0622 228.084C71.1753 228.161 68.3175 227.49 65.7661 226.137C63.0781 224.719 60.8301 222.591 59.2664 219.985C57.7027 217.379 56.8832 214.394 56.8969 211.355C56.8969 206.917 58.66 202.66 61.7983 199.522C64.9366 196.384 69.193 194.621 73.6313 194.621C76.6705 194.607 79.6553 195.427 82.2614 196.99C84.8675 198.554 86.9952 200.802 88.4133 203.49C89.7041 205.91 90.3748 208.612 90.3657 211.355Z" fill="#177EE8"/>
<path d="M90.3657 277.065C90.3628 279.953 89.6133 282.792 88.19 285.304C86.7667 287.817 84.7179 289.92 82.2425 291.407C79.7671 292.894 76.9492 293.717 74.0622 293.794C71.1753 293.871 68.3175 293.201 65.7661 291.847C63.0781 290.429 60.8301 288.302 59.2664 285.696C57.7027 283.089 56.8832 280.105 56.8969 277.065C56.8969 272.627 58.66 268.371 61.7983 265.232C64.9366 262.094 69.193 260.331 73.6313 260.331C75.8312 260.323 78.0111 260.75 80.0453 261.588C82.0794 262.426 83.9276 263.658 85.4832 265.214C87.0388 266.769 88.2711 268.617 89.1091 270.651C89.9471 272.686 90.3741 274.865 90.3657 277.065V277.065Z" fill="#177EE8"/>
<path d="M201.398 79.9345C201.395 82.8225 200.646 85.6606 199.222 88.1735C197.799 90.6864 195.75 92.7886 193.275 94.2761C190.8 95.7636 187.982 96.5858 185.095 96.663C182.208 96.7402 179.35 96.0697 176.799 94.7166C174.111 93.2984 171.863 91.1707 170.299 88.5646C168.735 85.9585 167.916 82.9737 167.929 79.9345C167.929 75.4963 169.692 71.2398 172.831 68.1015C175.969 64.9632 180.226 63.2002 184.664 63.2002C187.703 63.1865 190.688 64.006 193.294 65.5696C195.9 67.1333 198.028 69.3813 199.446 72.0694C200.737 74.4895 201.407 77.1918 201.398 79.9345V79.9345Z" fill="#177EE8"/>
<path d="M201.398 145.645C201.395 148.533 200.646 151.371 199.222 153.884C197.799 156.397 195.75 158.499 193.275 159.986C190.799 161.474 187.982 162.296 185.095 162.373C182.208 162.45 179.35 161.78 176.798 160.427C173.866 158.847 171.461 156.442 169.882 153.51C168.529 150.959 167.858 148.101 167.935 145.214C168.012 142.327 168.835 139.509 170.322 137.034C171.81 134.558 173.912 132.509 176.425 131.086C178.938 129.663 181.776 128.913 184.664 128.91C187.703 128.897 190.688 129.716 193.294 131.28C195.9 132.844 198.028 135.092 199.446 137.78C200.736 140.2 201.407 142.902 201.398 145.645V145.645Z" fill="#177EE8"/>
<path d="M201.398 211.355C201.395 214.243 200.646 217.081 199.222 219.594C197.799 222.107 195.75 224.209 193.275 225.697C190.799 227.184 187.982 228.006 185.095 228.084C182.208 228.161 179.35 227.49 176.798 226.137C173.866 224.557 171.461 222.153 169.882 219.22C168.529 216.669 167.858 213.811 167.935 210.924C168.012 208.037 168.835 205.219 170.322 202.744C171.81 200.269 173.912 198.22 176.425 196.796C178.938 195.373 181.776 194.624 184.664 194.621C187.703 194.607 190.688 195.427 193.294 196.99C195.9 198.554 198.028 200.802 199.446 203.49C200.736 205.91 201.407 208.612 201.398 211.355V211.355Z" fill="#177EE8"/>
<path d="M18.1289 227.309C18.7699 227.309 19.4046 227.182 19.9967 226.937C20.5889 226.692 21.127 226.332 21.5802 225.879C22.0334 225.426 22.3929 224.888 22.6382 224.296C22.8835 223.703 23.0098 223.069 23.0098 222.428V207.439C23.0098 206.145 22.4955 204.903 21.5802 203.988C20.6649 203.073 19.4234 202.558 18.1289 202.558C16.8344 202.558 15.593 203.073 14.6776 203.988C13.7623 204.903 13.248 206.145 13.248 207.439V222.428C13.248 223.722 13.7623 224.964 14.6776 225.879C15.593 226.794 16.8344 227.309 18.1289 227.309Z" fill="#0B1523"/>
<path d="M223.446 85.2979C224.74 85.2979 225.982 84.7837 226.897 83.8683C227.812 82.953 228.327 81.7115 228.327 80.4171V55.3155C228.327 54.021 227.812 52.7795 226.897 51.8642C225.982 50.9489 224.74 50.4346 223.446 50.4346C222.151 50.4346 220.91 50.9489 219.995 51.8642C219.079 52.7795 218.565 54.021 218.565 55.3155V80.4171C218.566 81.7113 219.08 82.9523 219.995 83.8675C220.911 84.7827 222.152 85.2972 223.446 85.2979V85.2979Z" fill="#0B1523"/>
<path d="M320.72 235.904C319.703 235.103 318.41 234.738 317.124 234.89C315.838 235.043 314.666 235.699 313.864 236.716C313.063 237.733 312.698 239.026 312.85 240.312C313.003 241.598 313.659 242.77 314.676 243.572C319.976 247.74 324.389 252.926 327.656 258.824C330.923 264.723 332.978 271.214 333.701 277.918C334.423 284.622 333.798 291.403 331.862 297.862C329.927 304.321 326.72 310.328 322.43 315.529L251.189 244.288C260.24 236.802 271.622 232.711 283.369 232.725C286.72 232.724 290.064 233.054 293.351 233.709C294.621 233.963 295.939 233.701 297.016 232.983C298.093 232.264 298.84 231.147 299.093 229.877C299.347 228.608 299.085 227.289 298.367 226.212C297.648 225.135 296.531 224.388 295.261 224.135C289.348 222.956 283.293 222.665 277.294 223.27C276.295 221.958 275.213 220.71 274.056 219.535C270.503 215.96 266.276 213.126 261.62 211.196C256.963 209.266 251.97 208.279 246.93 208.293H246.91C246.297 208.293 245.694 208.354 245.086 208.382V34.8633C245.079 29.1326 242.8 23.6385 238.748 19.5863C234.696 15.5341 229.202 13.2547 223.471 13.248H34.8633C29.1326 13.2547 23.6385 15.5341 19.5863 19.5863C15.5341 23.6385 13.2547 29.1326 13.248 34.8633V185.124C13.248 186.419 13.7623 187.66 14.6776 188.575C15.593 189.491 16.8344 190.005 18.1289 190.005C19.4234 190.005 20.6649 189.491 21.5802 188.575C22.4955 187.66 23.0098 186.419 23.0098 185.124V34.8633C23.0135 31.7207 24.2635 28.7078 26.4857 26.4857C28.7078 24.2635 31.7207 23.0135 34.8633 23.0098H124.275V333.99H34.8633C31.7207 333.987 28.7078 332.737 26.4857 330.514C24.2635 328.292 23.0135 325.279 23.0098 322.137V244.043C23.0098 242.748 22.4955 241.507 21.5802 240.592C20.6649 239.676 19.4234 239.162 18.1289 239.162C16.8344 239.162 15.593 239.676 14.6776 240.592C13.7623 241.507 13.248 242.748 13.248 244.043V322.137C13.2547 327.867 15.5341 333.361 19.5863 337.414C23.6385 341.466 29.1326 343.745 34.8633 343.752H223.46C227.98 343.745 232.384 342.322 236.054 339.684C239.724 337.046 242.476 333.324 243.923 329.042C250.01 334.307 257.089 338.301 264.742 340.79C272.395 343.28 280.469 344.214 288.489 343.537C296.508 342.861 304.311 340.589 311.44 336.853C318.568 333.117 324.878 327.994 329.998 321.785C335.118 315.576 338.945 308.405 341.253 300.696C343.562 292.986 344.306 284.893 343.442 276.891C342.577 268.89 340.122 261.142 336.22 254.103C332.318 247.065 327.048 240.877 320.72 235.904V235.904ZM246.905 218.054H246.918C254.018 218.047 260.862 220.7 266.102 225.49C254.999 228.823 245.087 235.273 237.543 244.073C229.998 252.873 225.138 263.654 223.541 275.135L200.779 252.374L226.717 226.436C230.641 222.488 235.641 219.784 241.092 218.663L241.329 218.607C243.165 218.241 245.033 218.056 246.905 218.054V218.054ZM134.037 23.0098H223.46C226.602 23.0135 229.615 24.2635 231.837 26.4857C234.059 28.7078 235.31 31.7207 235.313 34.8633V210.095C229.462 211.946 224.145 215.184 219.814 219.533L183.671 255.662C182.782 256.583 182.289 257.815 182.3 259.095C182.311 260.375 182.824 261.599 183.729 262.504C184.634 263.409 185.858 263.923 187.138 263.934C188.417 263.946 189.65 263.454 190.571 262.565L193.873 259.263L223.206 288.593C223.732 294.731 225.201 300.752 227.562 306.443L208.379 325.626C203.016 330.989 195.743 334.002 188.159 334.002C180.574 334.002 173.301 330.989 167.938 325.626C162.575 320.263 159.562 312.989 159.562 305.405C159.562 297.821 162.575 290.547 167.938 285.184L174.791 278.348C175.245 277.896 175.605 277.359 175.852 276.767C176.098 276.175 176.226 275.541 176.227 274.9C176.228 274.259 176.103 273.624 175.859 273.031C175.615 272.439 175.257 271.9 174.804 271.445C174.352 270.991 173.815 270.631 173.223 270.384C172.631 270.138 171.997 270.01 171.356 270.009C170.715 270.008 170.08 270.133 169.487 270.377C168.895 270.621 168.356 270.979 167.902 271.432L161.04 278.279C153.857 285.48 149.823 295.236 149.823 305.408C149.823 315.58 153.857 325.336 161.04 332.537C161.559 333.053 162.111 333.511 162.653 333.99H134.037V23.0098ZM223.46 333.99H213.667C214.208 333.508 214.763 333.05 215.282 332.534L232.295 315.521C233.244 317.022 234.253 318.477 235.324 319.889V322.12C235.325 323.678 235.018 325.222 234.422 326.662C233.826 328.102 232.952 329.41 231.85 330.512C230.749 331.615 229.441 332.489 228.001 333.086C226.561 333.683 225.018 333.99 223.46 333.99V333.99ZM232.725 283.369C232.714 271.626 236.804 260.248 244.288 251.2L315.527 322.441C308.121 328.547 299.131 332.421 289.607 333.611C280.083 334.801 270.416 333.258 261.736 329.162C253.055 325.066 245.719 318.585 240.582 310.477C235.445 302.369 232.72 292.967 232.725 283.369V283.369Z" fill="#0B1523"/>
<path d="M73.6311 101.561C77.9062 101.561 82.0853 100.293 85.6399 97.9181C89.1945 95.543 91.965 92.1672 93.601 88.2175C95.237 84.2678 95.6651 79.9217 94.831 75.7288C93.997 71.5358 91.9383 67.6844 88.9154 64.6614C85.8924 61.6385 82.041 59.5798 77.848 58.7458C73.6551 57.9118 69.309 58.3398 65.3593 59.9758C61.4096 61.6118 58.0338 64.3823 55.6587 67.9369C53.2836 71.4915 52.0159 75.6706 52.0159 79.9457C52.0225 85.6764 54.302 91.1704 58.3542 95.2226C62.4064 99.2748 67.9004 101.554 73.6311 101.561V101.561ZM73.6311 91.7992C72.2082 91.789 70.799 91.5197 69.4726 91.0043L84.6925 75.7844C85.3847 77.5743 85.6287 79.5063 85.4033 81.4121C85.1779 83.3179 84.49 85.1396 83.3993 86.7186C82.3087 88.2977 80.8485 89.5861 79.1459 90.4716C77.4434 91.3571 75.5501 91.8129 73.6311 91.7992V91.7992ZM73.6311 68.0922C75.0627 68.1002 76.4806 68.3706 77.8147 68.8898L62.5948 84.1098C62.0804 82.7832 61.812 81.374 61.8027 79.9513C61.8049 76.812 63.0508 73.8015 65.2677 71.5789C67.4846 69.3562 70.4919 68.1025 73.6311 68.0922V68.0922Z" fill="#0B1523"/>
<path d="M73.6311 167.263C77.9062 167.263 82.0853 165.995 85.6399 163.62C89.1945 161.245 91.965 157.869 93.601 153.919C95.237 149.97 95.6651 145.624 94.831 141.431C93.997 137.238 91.9383 133.386 88.9154 130.363C85.8924 127.34 82.041 125.282 77.848 124.448C73.6551 123.614 69.309 124.042 65.3593 125.678C61.4096 127.314 58.0338 130.084 55.6587 133.639C53.2836 137.193 52.0159 141.373 52.0159 145.648C52.0225 151.378 54.302 156.872 58.3542 160.925C62.4064 164.977 67.9004 167.256 73.6311 167.263V167.263ZM73.6311 157.501C72.2083 157.492 70.7992 157.223 69.4726 156.709L84.7037 141.489C85.3964 143.28 85.6404 145.213 85.4145 147.119C85.1885 149.026 84.4995 150.848 83.4075 152.427C82.3155 154.006 80.8537 155.294 79.1496 156.179C77.4456 157.063 75.551 157.517 73.6311 157.501ZM73.6311 133.794C75.0537 133.805 76.4626 134.073 77.7896 134.586L62.5697 149.806C62.0553 148.48 61.7869 147.07 61.7776 145.648C61.7813 142.505 63.0313 139.492 65.2535 137.27C67.4756 135.048 70.4885 133.798 73.6311 133.794Z" fill="#0B1523"/>
<path d="M73.6311 232.968C77.9062 232.968 82.0853 231.7 85.6399 229.325C89.1945 226.95 91.965 223.574 93.601 219.624C95.237 215.674 95.6651 211.328 94.831 207.135C93.997 202.942 91.9383 199.091 88.9154 196.068C85.8924 193.045 82.041 190.986 77.848 190.152C73.6551 189.318 69.309 189.746 65.3593 191.382C61.4096 193.018 58.0338 195.789 55.6587 199.344C53.2836 202.898 52.0159 207.077 52.0159 211.352C52.0225 217.083 54.302 222.577 58.3542 226.629C62.4064 230.682 67.9004 232.961 73.6311 232.968V232.968ZM73.6311 223.206C72.2085 223.195 70.7996 222.927 69.4726 222.414L84.6925 207.194C85.3848 208.984 85.629 210.915 85.4036 212.821C85.1782 214.727 84.4902 216.548 83.3995 218.127C82.3088 219.706 80.8485 220.994 79.1459 221.879C77.4433 222.765 75.55 223.22 73.6311 223.206V223.206ZM73.6311 199.499C75.0539 199.508 76.463 199.777 77.7896 200.291L62.5808 215.511C62.0665 214.184 61.798 212.775 61.7887 211.352C61.7924 208.212 63.0409 205.201 65.2607 202.979C67.4804 200.757 70.4904 199.505 73.6311 199.499Z" fill="#0B1523"/>
<path d="M73.6311 298.67C77.9062 298.67 82.0853 297.402 85.6399 295.027C89.1945 292.652 91.965 289.276 93.601 285.326C95.237 281.376 95.6651 277.03 94.831 272.837C93.997 268.644 91.9383 264.793 88.9154 261.77C85.8924 258.747 82.041 256.688 77.848 255.854C73.6551 255.02 69.309 255.448 65.3593 257.084C61.4096 258.72 58.0338 261.491 55.6587 265.046C53.2836 268.6 52.0159 272.779 52.0159 277.054C52.0225 282.785 54.302 288.279 58.3542 292.331C62.4064 296.383 67.9004 298.663 73.6311 298.67V298.67ZM73.6311 288.908C72.2083 288.899 70.7992 288.63 69.4726 288.116L84.6925 272.899C85.385 274.688 85.6292 276.62 85.4038 278.526C85.1785 280.431 84.4904 282.253 83.3996 283.831C82.3089 285.41 80.8485 286.698 79.1458 287.583C77.4432 288.468 75.5499 288.923 73.6311 288.908V288.908ZM73.6311 265.201C75.054 265.211 76.4632 265.48 77.7896 265.996L62.5697 281.216C62.0553 279.888 61.7869 278.478 61.7776 277.054C61.7813 273.912 63.0313 270.899 65.2535 268.677C67.4756 266.455 70.4885 265.204 73.6311 265.201V265.201Z" fill="#0B1523"/>
<path d="M184.667 101.561C188.942 101.561 193.121 100.293 196.675 97.9181C200.23 95.543 203 92.1672 204.636 88.2175C206.272 84.2678 206.7 79.9217 205.866 75.7288C205.032 71.5358 202.974 67.6844 199.951 64.6614C196.928 61.6385 193.076 59.5798 188.883 58.7458C184.69 57.9118 180.344 58.3398 176.395 59.9758C172.445 61.6118 169.069 64.3823 166.694 67.9369C164.319 71.4915 163.051 75.6706 163.051 79.9457C163.058 85.6764 165.337 91.1704 169.39 95.2226C173.442 99.2748 178.936 101.554 184.667 101.561ZM184.667 91.7992C183.244 91.7887 181.834 91.5194 180.508 91.0043L195.728 75.7844C196.242 77.1119 196.511 78.522 196.52 79.9457C196.516 83.0883 195.266 86.1011 193.044 88.3233C190.822 90.5455 187.809 91.7955 184.667 91.7992ZM184.667 68.0922C186.088 68.1043 187.495 68.3746 188.819 68.8898L173.6 84.1098C173.084 82.7833 172.815 81.3742 172.805 79.9513C172.807 76.8062 174.057 73.7907 176.282 71.5671C178.506 69.3435 181.521 68.0937 184.667 68.0922Z" fill="#0B1523"/>
<path d="M184.667 167.263C188.942 167.263 193.121 165.995 196.675 163.62C200.23 161.245 203 157.869 204.636 153.919C206.272 149.97 206.7 145.624 205.866 141.431C205.032 137.238 202.974 133.386 199.951 130.363C196.928 127.34 193.076 125.282 188.883 124.448C184.69 123.614 180.344 124.042 176.395 125.678C172.445 127.314 169.069 130.084 166.694 133.639C164.319 137.193 163.051 141.373 163.051 145.648C163.057 151.379 165.336 156.873 169.389 160.925C173.441 164.978 178.936 167.257 184.667 167.263ZM184.667 157.501C183.244 157.492 181.835 157.223 180.508 156.709L195.728 141.489C196.242 142.816 196.511 144.225 196.52 145.648C196.516 148.79 195.266 151.803 193.044 154.025C190.822 156.247 187.809 157.497 184.667 157.501ZM184.667 133.794C186.09 133.805 187.5 134.073 188.828 134.586L173.608 149.806C173.093 148.48 172.823 147.071 172.813 145.648C172.817 142.505 174.067 139.492 176.289 137.27C178.511 135.048 181.524 133.798 184.667 133.794V133.794Z" fill="#0B1523"/>
<path d="M184.667 232.968C188.942 232.968 193.121 231.7 196.675 229.325C200.23 226.95 203 223.574 204.636 219.624C206.272 215.674 206.7 211.328 205.866 207.135C205.032 202.942 202.974 199.091 199.951 196.068C196.928 193.045 193.076 190.986 188.883 190.152C184.69 189.318 180.344 189.746 176.395 191.382C172.445 193.018 169.069 195.789 166.694 199.344C164.319 202.898 163.051 207.077 163.051 211.352C163.058 217.083 165.337 222.577 169.39 226.629C173.442 230.682 178.936 232.961 184.667 232.968V232.968ZM184.667 223.206C183.245 223.195 181.837 222.927 180.511 222.414L195.728 207.194C196.242 208.52 196.511 209.93 196.52 211.352C196.516 214.495 195.266 217.508 193.044 219.73C190.822 221.952 187.809 223.202 184.667 223.206V223.206ZM184.667 199.499C186.09 199.508 187.5 199.777 188.828 200.291L173.608 215.511C173.093 214.184 172.823 212.775 172.813 211.352C172.817 208.21 174.067 205.197 176.289 202.975C178.511 200.753 181.524 199.503 184.667 199.499V199.499Z" fill="#0B1523"/>
</svg>
