<svg width="362" height="362" viewBox="0 0 362 362" fill="none" xmlns="http://www.w3.org/2000/svg">
<g clip-path="url(#clip0)">
<path d="M211.162 232.989H237.013V340.146H211.162V232.989Z" fill="white"/>
<path d="M227.965 232.989H237.013V340.146H227.965V232.989Z" fill="white"/>
<path d="M305.937 252.728H142.238C138.432 252.728 135.35 249.646 135.35 245.84V93.3198C135.35 44.311 175.079 4.57913 224.088 4.57913C273.096 4.57913 312.826 44.311 312.826 93.3198V245.84C312.826 249.646 309.743 252.728 305.937 252.728Z" fill="#FFCE54"/>
<path d="M225.319 4.5957C253.079 19.5953 271.939 48.9536 271.939 82.7171V235.237C271.939 239.043 268.854 242.125 265.051 242.125H135.35V245.837C135.35 249.643 138.432 252.728 142.238 252.728H305.937C309.743 252.728 312.826 249.643 312.826 245.837V93.3198C312.826 44.7225 273.762 5.25578 225.319 4.5957V4.5957Z" fill="#FFCE54"/>
<path d="M271.384 148.269H176.791C172.643 148.269 169.279 144.905 169.279 140.757V73.8682C169.279 69.7199 172.643 66.356 176.791 66.356H271.384C275.535 66.356 278.896 69.7199 278.896 73.8682V140.757C278.896 144.905 275.535 148.269 271.384 148.269Z" fill="#FFCE54"/>
<path d="M270.365 66.356H244.967V127.691C244.967 132.403 241.147 136.225 236.436 136.225H169.279V139.738C169.279 144.45 173.098 148.269 177.81 148.269H270.365C275.077 148.269 278.896 144.45 278.896 139.738V74.8901C278.896 70.1784 275.077 66.356 270.365 66.356V66.356Z" fill="#FFCE54"/>
<path d="M258.102 118.052H189.774C188.352 118.052 187.2 116.9 187.2 115.478V99.1501C187.2 97.7277 188.352 96.5733 189.774 96.5733H258.102C259.524 96.5733 260.676 97.7277 260.676 99.1501V115.478C260.676 116.9 259.522 118.052 258.102 118.052Z" fill="white"/>
<path d="M257.743 96.5733H250.64V105.883C250.64 107.505 249.325 108.819 247.704 108.819H187.2V115.119C187.2 116.74 188.512 118.055 190.133 118.055H257.743C259.364 118.055 260.676 116.74 260.676 115.119V99.5091C260.676 97.8879 259.362 96.5733 257.743 96.5733V96.5733Z" fill="#FFCE54"/>
<path d="M257.837 356.007H190.338C188.634 356.007 187.253 354.626 187.253 352.922V347.636C187.253 337.853 195.182 329.921 204.967 329.921H243.211C252.993 329.921 260.922 337.853 260.922 347.636V352.922C260.922 354.626 259.541 356.007 257.837 356.007Z" fill="white"/>
<path d="M243.879 329.938C246.45 333.014 247.997 336.969 247.997 341.289V346.578C247.997 348.279 246.616 349.66 244.915 349.66H187.253V352.922C187.253 354.626 188.634 356.007 190.338 356.007H257.837C259.541 356.007 260.922 354.626 260.922 352.922V347.636C260.922 338.077 253.352 330.291 243.879 329.938Z" fill="white"/>
<path d="M180.854 286.566H56.8828C53.3781 286.566 50.5361 283.727 50.5361 280.222V198.09C50.5361 194.586 53.3781 191.744 56.8828 191.744H180.854C184.358 191.744 187.2 194.586 187.2 198.09V280.222C187.2 283.727 184.358 286.566 180.854 286.566Z" fill="#177EE8"/>
<path d="M181.257 191.744H163.172V270.578C163.172 274.414 160.062 277.526 156.226 277.526H50.5361V280.625C50.5361 283.906 53.1985 286.566 56.4796 286.566H181.257C184.538 286.566 187.2 283.906 187.2 280.625V197.687C187.2 194.406 184.538 191.744 181.257 191.744Z" fill="#177EE8"/>
<path d="M187.2 197.466C187.2 194.307 184.637 191.744 181.475 191.744H57.043C53.4499 191.744 50.5361 194.657 50.5361 198.25L114.572 251.253C117.063 253.316 120.67 253.316 123.164 251.253L187.198 198.25V197.466H187.2Z" fill="#177EE8"/>
<path d="M181.475 191.744H167.439L105.058 243.379L114.572 251.253C117.063 253.316 120.67 253.316 123.164 251.253L187.198 198.25V197.466C187.2 194.307 184.637 191.744 181.475 191.744V191.744Z" fill="#177EE8"/>
<path d="M312.825 194.431C315.747 194.431 318.114 192.064 318.114 189.145V93.3198C318.114 41.4718 275.933 -0.707031 224.087 -0.707031C172.242 -0.707031 130.061 41.4718 130.061 93.3198V186.457H56.383C50.2434 186.457 45.25 191.451 45.25 197.59V198.25C45.25 198.518 45.2776 198.783 45.3163 199.046C45.2749 199.488 45.25 199.932 45.25 200.383V278.106C45.25 285.688 51.4172 291.852 58.9957 291.852H178.738C186.319 291.852 192.486 285.688 192.486 278.106V258.014H205.876V324.635H204.964C192.282 324.635 181.967 334.951 181.967 347.633V352.922C181.967 357.537 185.72 361.293 190.338 361.293H257.837C262.452 361.293 266.208 357.537 266.208 352.922V347.633C266.208 334.951 255.89 324.635 243.208 324.635H242.299V258.014H305.937C312.651 258.014 318.112 252.554 318.112 245.837V213.993C318.112 211.071 315.745 208.704 312.825 208.704C309.906 208.704 307.539 211.071 307.539 213.993V245.837C307.539 246.721 306.821 247.439 305.937 247.439H192.486V200.203C192.486 199.281 192.44 198.389 192.486 197.466C192.486 191.396 187.548 186.455 181.475 186.455H140.636V93.3198C140.636 47.302 178.072 9.86806 224.087 9.86806C270.103 9.86806 307.539 47.302 307.539 93.3198V189.145C307.539 192.064 309.906 194.431 312.825 194.431ZM255.633 347.636V350.718H192.539V347.636C192.539 340.784 198.112 335.21 204.964 335.21H243.21C250.06 335.21 255.633 340.784 255.633 347.636ZM231.724 324.635H216.451V258.017H231.724V324.635ZM180.036 197.314L119.792 247.182C119.256 247.624 118.477 247.624 117.944 247.182L93.2315 226.725C90.9806 224.864 87.647 225.178 85.7855 227.427C83.9241 229.677 84.2389 233.008 86.487 234.87L111.2 255.327C113.421 257.166 116.144 258.086 118.867 258.086C121.59 258.086 124.313 257.166 126.537 255.327L181.911 209.491V278.106C181.911 279.857 180.489 281.28 178.738 281.28H58.9984C57.2474 281.28 55.8251 279.857 55.8251 278.106V209.491L66.483 218.312C68.7339 220.174 72.0647 219.862 73.9262 217.611C75.7904 215.363 75.4756 212.029 73.2274 210.168L57.7529 197.361C58.1865 197.157 58.667 197.032 59.178 197.032H178.738C179.202 197.032 179.638 197.137 180.036 197.314Z" fill="black"/>
<path d="M184.38 61.0698H176.769C169.723 61.0698 163.99 66.8006 163.99 73.8461V140.779C163.99 147.825 169.723 153.558 176.769 153.558H271.406C278.451 153.558 284.185 147.825 284.185 140.779V73.8461C284.185 66.8006 278.451 61.0698 271.406 61.0698H209.284C206.362 61.0698 203.995 63.4367 203.995 66.356C203.995 69.278 206.362 71.6449 209.284 71.6449H271.406C272.621 71.6449 273.61 72.6337 273.61 73.8461V140.779C273.61 141.995 272.621 142.983 271.406 142.983H176.769C175.554 142.983 174.565 141.995 174.565 140.779V73.8461C174.565 72.6337 175.554 71.6449 176.769 71.6449H184.38C187.3 71.6449 189.667 69.278 189.667 66.356C189.667 63.4367 187.3 61.0698 184.38 61.0698Z" fill="black"/>
<path d="M181.912 99.1501V115.478C181.912 119.814 185.438 123.341 189.775 123.341H258.103C262.436 123.341 265.965 119.814 265.965 115.478V99.1501C265.965 94.814 262.439 91.2871 258.103 91.2871H189.775C185.438 91.2871 181.912 94.814 181.912 99.1501V99.1501ZM192.487 101.862H255.39V112.766H192.487V101.862Z" fill="black"/>
</g>
<defs>
<clipPath id="clip0">
<rect width="362" height="362" fill="white"/>
</clipPath>
</defs>
</svg>
